<svg width="80" height="81" viewBox="0 0 80 81" fill="none" xmlns="http://www.w3.org/2000/svg">
<g clip-path="url(#clip0)">
<path d="M1.47082 34.9676L1.25669 37.5519L2.61269 38.0794C2.61048 38.0174 2.60974 37.9576 2.61269 37.9015C2.61565 37.8454 2.61638 37.7933 2.62008 37.7464C2.63858 37.3721 2.73634 37.0059 2.9069 36.6722C3.07746 36.3384 3.31694 36.0447 3.60948 35.8104C3.91205 35.5698 4.25938 35.3917 4.63132 35.2864C5.00326 35.1811 5.39241 35.1506 5.7762 35.1968C6.18316 35.2178 6.5812 35.3239 6.94458 35.5083C7.30796 35.6927 7.62858 35.9513 7.8857 36.2675C8.14587 36.5892 8.33931 36.9595 8.45474 37.3568C8.57017 37.7541 8.60527 38.1705 8.55798 38.5815C8.51733 39.1209 8.32976 39.6389 8.01562 40.0793C7.70148 40.5197 7.27275 40.8657 6.77594 41.0798L6.04644 40.0575C6.43225 39.8921 6.77864 39.6469 7.0628 39.338C7.3072 39.0042 7.43273 38.5982 7.41935 38.1848C7.40596 37.7714 7.25444 37.3744 6.98896 37.0572C6.65915 36.6866 6.19606 36.4616 5.70089 36.4314C5.45944 36.4022 5.21458 36.4227 4.98137 36.4917C4.74816 36.5608 4.53156 36.6768 4.34489 36.8327C4.15922 36.9825 4.00701 37.1696 3.89808 37.3818C3.78916 37.5941 3.72593 37.8268 3.71248 38.065C3.69135 38.3513 3.73644 38.6386 3.84425 38.9046C3.95207 39.1706 4.11971 39.4082 4.33418 39.599L4.29948 40.0161L0 38.3341L0.286853 34.8694L1.47082 34.9676Z" fill="white"/>
<path d="M5.69922 34.2077L6.22862 31.8361L7.27082 32.0683L6.74215 34.4406L5.69922 34.2077Z" fill="white"/>
<path d="M9.42212 31.9274L1.5918 28.85L2.23749 27.2086C2.46381 26.5698 2.79003 25.9709 3.20401 25.4343C3.55497 24.9977 3.99926 24.6452 4.50426 24.4028C5.02917 24.1463 5.60364 24.0071 6.18775 23.995C6.77186 23.9829 7.35161 24.0981 7.8867 24.3327C8.7062 24.6329 9.4082 25.1873 9.8901 25.915C10.372 26.6426 10.6085 27.5054 10.5651 28.377C10.4971 29.0412 10.3267 29.6909 10.0601 30.3031L9.42212 31.9274ZM8.77569 30.3097L8.98501 29.7773C9.17155 29.3346 9.2904 28.8662 9.33758 28.3881C9.3676 27.768 9.1971 27.1548 8.85133 26.6392C8.50556 26.1236 8.00291 25.7331 7.41784 25.5255C7.03375 25.3579 6.61814 25.2749 6.19915 25.2819C5.78016 25.289 5.36758 25.386 4.98937 25.5665C4.30934 25.8965 3.77144 26.5655 3.37568 27.5733L3.16598 28.1053L8.77569 30.3097Z" fill="white"/>
<path d="M13.1606 20.2257L11.1301 23.201L12.29 25.127L11.5184 26.2567L6.47949 17.7784L16.1288 19.5003L15.3461 20.6477L13.1606 20.2257ZM11.8832 19.9806L8.81678 19.3995L10.4412 22.092L11.8832 19.9806Z" fill="white"/>
<path d="M14.7491 16.0291L9.43848 14.5524L10.4785 13.5272L14.2072 14.5712L13.2215 10.8237L14.2618 9.79846L15.6529 15.1364L18.2047 17.7251L17.3005 18.6163L14.7491 16.0291Z" fill="white"/>
<path d="M22.6421 13.8163L20.5156 4.8478L25.8484 9.60728L25.8691 2.41711L31.0568 9.99603L29.871 10.5339L27.0328 6.24589L27.0235 12.2517L22.5598 8.26974L23.8375 13.2732L22.6421 13.8163Z" fill="white"/>
<path d="M30.9083 5.70432C30.8287 5.13861 30.8678 4.56253 31.0228 4.0127C31.1779 3.46288 31.4457 2.95132 31.8091 2.51054C32.1596 2.05019 32.5997 1.66564 33.103 1.38011C33.6062 1.09458 34.1621 0.913984 34.7371 0.849227C35.3059 0.768005 35.8854 0.804231 36.4397 0.95567C36.9941 1.10711 37.5115 1.37055 37.96 1.72972C38.4232 2.07215 38.811 2.50614 39.0994 3.00475C39.3878 3.50336 39.5706 4.05593 39.6365 4.62816C39.7199 5.19734 39.6837 5.77768 39.5301 6.33207C39.3766 6.88646 39.109 7.4027 38.7445 7.84779C38.0466 8.73281 37.0386 9.31976 35.9244 9.48993C34.8103 9.66011 33.673 9.4008 32.7427 8.76446C32.2279 8.4237 31.7959 7.97198 31.4785 7.44244C31.161 6.9129 30.9662 6.319 30.9083 5.70432ZM32.1801 5.55665C32.2213 5.98162 32.3515 6.39316 32.5622 6.7645C32.7729 7.13583 33.0595 7.45864 33.4032 7.71193C34.0567 8.21151 34.8817 8.43127 35.6971 8.32294C36.5124 8.21461 37.2515 7.78704 37.7518 7.13416C38.0075 6.80337 38.1936 6.42429 38.2991 6.01971C38.4045 5.61513 38.4271 5.19341 38.3654 4.77989C38.3223 4.36463 38.1955 3.96243 37.9924 3.59767C37.7893 3.2329 37.5143 2.91317 37.184 2.65784C36.5256 2.15199 35.6936 1.92768 34.8701 2.03403C34.0467 2.14039 33.299 2.56874 32.7907 3.22527C32.5351 3.55155 32.349 3.92676 32.244 4.32773C32.139 4.7287 32.1172 5.14695 32.1801 5.55665Z" fill="white"/>
<path d="M40.8818 8.8884L42.1935 0L47.3251 7.24517L48.1791 1.46159L49.4343 1.64618L48.1314 10.4755L42.998 3.24879L42.1382 9.07373L40.8818 8.8884Z" fill="white"/>
<path d="M56.3742 5.44922L53.2362 4.2169L52.4978 6.09972L55.5465 7.29587L55.1101 8.4071L52.0622 7.20985L51.0344 9.82734L54.1724 11.0597L53.7364 12.1709L49.417 10.4727L52.4912 2.64124L56.8106 4.33947L56.3742 5.44922Z" fill="white"/>
<path d="M58.0979 10.5185L58.326 5.01184L59.5609 5.79155L59.3933 9.66056L62.8186 7.84715L64.0539 8.62649L59.1718 11.1964L57.2318 14.2694L56.1582 13.5923L58.0979 10.5185Z" fill="white"/>
<path d="M61.1137 13.0547L62.9859 14.6052L62.3051 15.4278L60.4326 13.8772L61.1137 13.0547Z" fill="white"/>
<path d="M61.4648 17.5066L67.6335 11.7843L68.4933 12.7117C68.8095 13.0353 69.0847 13.3966 69.3125 13.7875C69.4723 14.0711 69.5609 14.3891 69.571 14.7145C69.5722 15.0443 69.5022 15.3705 69.3657 15.6707C69.2333 15.9819 69.0375 16.2621 68.7909 16.4936C68.5804 16.6934 68.3287 16.8446 68.0535 16.9368C67.7783 17.029 67.4862 17.0598 67.1979 17.027C67.3878 17.4399 67.4339 17.9044 67.3289 18.3465C67.1998 18.8784 66.8905 19.3493 66.4536 19.679C66.0167 20.0088 65.4791 20.1771 64.9322 20.1555C64.5565 20.1465 64.1887 20.0451 63.8616 19.8601C63.4582 19.5951 63.0916 19.2779 62.7714 18.9169L61.4648 17.5066ZM63.2033 17.6262L63.7372 18.2018C64.015 18.5548 64.4062 18.801 64.8447 18.8988C65.0197 18.9223 65.1977 18.9058 65.3654 18.8506C65.5332 18.7954 65.6862 18.703 65.8131 18.5802C65.942 18.4644 66.044 18.3217 66.1119 18.1623C66.1798 18.0028 66.212 17.8304 66.2062 17.6572C66.204 17.2972 65.9709 16.8664 65.507 16.3651L65.0695 15.8937L63.2033 17.6262ZM65.8481 15.1734L66.1187 15.4654C66.3494 15.7606 66.684 15.9565 67.0542 16.0133C67.2231 16.015 67.3904 15.9815 67.5456 15.915C67.7007 15.8484 67.8403 15.7502 67.9554 15.6267C68.0847 15.5227 68.1901 15.3922 68.2646 15.2439C68.3391 15.0956 68.3808 14.9331 68.387 14.7673C68.3617 14.4129 68.2034 14.0811 67.944 13.8384L67.6405 13.5113L65.8481 15.1734Z" fill="white"/>
<path d="M69.6886 25.0135L67.8427 21.9201L65.6077 22.1616L64.9062 20.9872L74.722 19.9827L69.0972 28.0116L68.3854 26.8184L69.6886 25.0135ZM70.448 23.958L72.2662 21.421L69.1393 21.7629L70.448 23.958Z" fill="white"/>
<path d="M78.4708 31.4825L77.0414 31.9506C77.3897 31.18 77.4489 30.3097 77.2082 29.4989C77.088 29.1076 76.8865 28.7461 76.6168 28.4382C76.3471 28.1303 76.0153 27.8828 75.6433 27.7121C75.2679 27.5274 74.8594 27.4196 74.4417 27.3949C74.0241 27.3702 73.6057 27.429 73.2111 27.5681C72.8151 27.6876 72.4475 27.886 72.1302 28.1514C71.813 28.4168 71.5528 28.7437 71.3652 29.1124C71.1725 29.4723 71.0565 29.8683 71.0248 30.2753C70.993 30.6823 71.0461 31.0915 71.1806 31.477C71.2915 31.852 71.483 32.1983 71.7418 32.4915C71.8774 32.6466 72.0275 32.7885 72.19 32.9153C72.3845 33.0679 72.5877 33.2093 72.7984 33.3388L71.3434 33.8146C70.745 33.2783 70.2977 32.5943 70.0461 31.831C69.8594 31.2906 69.7843 30.7179 69.8254 30.1476C69.8665 29.5773 70.023 29.0212 70.2854 28.5132C70.5351 28.0008 70.8871 27.5449 71.3197 27.1737C71.7523 26.8025 72.2562 26.5237 72.8006 26.3546C73.7993 26.0207 74.8856 26.0627 75.8556 26.4727C76.4558 26.7071 76.9947 27.0755 77.431 27.5497C77.8673 28.0239 78.1896 28.5914 78.3734 29.2091C78.6095 29.9444 78.6432 30.7297 78.4708 31.4825Z" fill="white"/>
<path d="M76.2123 35.8891L79.8488 38.8495L80.0005 40.5378L75.8657 37.0911L71.623 41.3134L71.4706 39.6204L74.9272 36.2675L74.6433 36.0305L71.1752 36.3424L71.0615 35.078L79.4419 34.3237L79.5556 35.5882L76.2123 35.8891Z" fill="white"/>
<path d="M9.93833 59.8131L11.7636 62.7714L11.5273 62.919C11.0487 63.2243 10.5277 63.4573 9.98115 63.6105C9.50159 63.7234 9.00385 63.736 8.5192 63.6474C7.96264 63.5576 7.43293 63.3455 6.96824 63.0263C6.50355 62.7071 6.11546 62.2888 5.83193 61.8015C5.52908 61.3248 5.32811 60.7906 5.24164 60.2324C5.15517 59.6743 5.18508 59.1043 5.32948 58.5583C5.45713 58.0021 5.69611 57.4775 6.03202 57.0161C6.36792 56.5548 6.79378 56.1662 7.28392 55.874C7.76998 55.5613 8.31511 55.3519 8.88547 55.2588C9.45583 55.1656 10.0393 55.1907 10.5995 55.3324C11.4739 55.5442 12.2629 56.0175 12.8615 56.6891C13.46 57.3608 13.8397 58.1989 13.9498 59.0917C13.9957 59.7878 13.9042 60.4861 13.6807 61.147L12.4683 60.8317C12.6793 60.3771 12.7758 59.8778 12.7494 59.3773C12.723 58.8769 12.5746 58.3905 12.317 57.9606C12.1065 57.6009 11.8237 57.2888 11.4865 57.0441C11.1492 56.7993 10.7649 56.6271 10.3577 56.5385C9.94953 56.4406 9.5256 56.4274 9.11211 56.4997C8.69862 56.572 8.30434 56.7283 7.95361 56.959C7.25596 57.3891 6.75262 58.0733 6.54978 58.8674C6.34694 59.6615 6.46045 60.5033 6.86638 61.2153C7.1897 61.7439 7.69525 62.136 8.28772 62.3176C8.56859 62.418 8.86662 62.4617 9.16448 62.4459C9.46235 62.4302 9.75413 62.3555 10.0229 62.2261L8.92161 60.44L9.93833 59.8131Z" fill="white"/>
<path d="M17.6717 63.0723L14.3213 66.8749C13.9251 67.2613 13.6526 67.7568 13.5387 68.2984C13.5223 68.5851 13.5712 68.8717 13.6818 69.1366C13.7924 69.4016 13.9618 69.6379 14.1771 69.8278C14.3925 70.0177 14.6482 70.1562 14.9249 70.2328C15.2016 70.3093 15.4921 70.322 15.7744 70.2699C16.2989 70.0913 16.7571 69.7583 17.0887 69.3144L20.439 65.5119L21.3915 66.3514L17.8105 70.4149C17.5554 70.7257 17.241 70.9826 16.8857 71.1706C16.5304 71.3587 16.1412 71.4741 15.7408 71.5103C15.3164 71.5409 14.8901 71.4866 14.4869 71.3506C14.0836 71.2146 13.7115 70.9997 13.3923 70.7183C13.073 70.4369 12.813 70.0948 12.6275 69.7118C12.4419 69.3288 12.3345 68.9128 12.3115 68.4878C12.2971 68.0861 12.3628 67.6854 12.5048 67.3093C12.6468 66.9332 12.8622 66.5891 13.1385 66.2971L16.7195 62.2332L17.6717 63.0723Z" fill="white"/>
<path d="M24.9933 75.5343L21.7533 73.9609L20.0182 75.3892L18.7881 74.7923L26.4386 68.5668L26.1433 78.3645L24.8936 77.7579L24.9933 75.5343ZM25.049 74.2341L25.176 71.1163L22.7501 73.118L25.049 74.2341Z" fill="white"/>
<path d="M33.4481 76.4204L35.3251 80.4345L33.8003 80.1392L32.0944 76.3026L31.8695 76.2591L31.2165 79.6404L29.9697 79.3993L31.5653 71.1411L33.0258 71.4232C34.1176 71.6343 34.8663 71.9912 35.2719 72.4938C35.4913 72.7654 35.6461 73.0833 35.7246 73.4234C35.8031 73.7636 35.8032 74.1172 35.7249 74.4575C35.6323 75.0061 35.3513 75.5053 34.9304 75.8692C34.5178 76.2237 33.9921 76.4192 33.4481 76.4204ZM32.0796 75.1737L32.4754 75.2501C33.6567 75.4778 34.3336 75.1406 34.5059 74.2385C34.669 73.3934 34.1768 72.8598 33.0291 72.6378L32.5861 72.5518L32.0796 75.1737Z" fill="white"/>
<path d="M44.278 78.3217L40.684 78.562L39.8855 80.6637L38.5195 80.7546L42.0759 71.5546L46.6799 80.2089L45.2933 80.3012L44.278 78.3217ZM43.6814 77.1654L42.2457 74.3943L41.1319 77.3359L43.6814 77.1654Z" fill="white"/>
<path d="M50.7028 79.2709L47.4932 70.8783L55.5166 74.6827L53.4285 69.2214L54.6143 68.7677L57.8018 77.1049L49.785 73.3156L51.8894 78.8164L50.7028 79.2709Z" fill="white"/>
<path d="M59.4891 66.8505L63.7018 72.7142L62.6707 73.4547L58.4579 67.591L56.8867 68.7204L56.1904 67.7513L60.3589 64.7557L61.0555 65.7248L59.4891 66.8505Z" fill="white"/>
<path d="M65.8465 60.7236L63.5834 63.2252L65.0827 64.5815L67.28 62.1531L68.1661 62.9538L65.9687 65.3819L68.0535 67.2688L70.3165 64.7676L71.2026 65.568L68.0878 69.011L61.8486 63.3658L64.9638 59.9232L65.8465 60.7236Z" fill="white"/>
<path d="M69.7017 54.3899L68.0558 57.3341L69.8202 58.3206L71.4183 55.462L72.4598 56.0442L70.8616 58.9032L73.3163 60.2754L74.9621 57.3305L76.0036 57.913L73.7379 61.9655L66.3945 57.8606L68.6598 53.8081L69.7017 54.3899Z" fill="white"/>
<path d="M4.88668 51.1213C6.49336 51.1213 7.79583 49.8188 7.79583 48.2121C7.79583 46.6054 6.49336 45.303 4.88668 45.303C3.28001 45.303 1.97754 46.6054 1.97754 48.2121C1.97754 49.8188 3.28001 51.1213 4.88668 51.1213Z" fill="#FFCD34"/>
<path d="M74.9248 51.1213C76.5314 51.1213 77.8339 49.8188 77.8339 48.2121C77.8339 46.6054 76.5314 45.303 74.9248 45.303C73.3181 45.303 72.0156 46.6054 72.0156 48.2121C72.0156 49.8188 73.3181 51.1213 74.9248 51.1213Z" fill="#FFCD34"/>
<path d="M25.4648 38.459C25.5304 38.3782 25.573 38.2813 25.588 38.1783C25.6031 38.0754 25.59 37.9703 25.5503 37.8742C25.5105 37.778 25.4455 37.6944 25.3622 37.6322C25.2788 37.5699 25.1802 37.5313 25.0767 37.5205L22.7915 37.275C23.1608 34.4083 24.2295 31.6763 25.9033 29.3199C28.3165 25.871 31.8187 23.3331 35.8476 22.1139C40.0142 20.8364 44.4872 20.9805 48.5629 22.5233C50.6282 23.3259 52.5528 24.4515 54.2649 25.8581C55.9842 27.3088 57.4623 29.0232 58.6441 30.9373C58.6932 31.016 58.7694 31.0739 58.8584 31.1001C58.9473 31.1263 59.0428 31.119 59.1267 31.0794C59.1703 31.0581 59.2093 31.0283 59.2414 30.9918C59.2735 30.9554 59.2981 30.9129 59.3138 30.8669C59.3295 30.8209 59.3359 30.7723 59.3328 30.7238C59.3296 30.6753 59.3169 30.6279 59.2954 30.5843C58.245 28.4649 56.8639 26.526 55.2041 24.8406C53.497 23.1487 51.531 21.7397 49.3803 20.6667C44.9258 18.5029 39.8786 17.8808 35.0321 18.8983C30.6635 19.8208 26.6568 21.992 23.4986 25.1481C20.3403 28.3041 18.1664 32.3094 17.2409 36.6773L14.626 36.3956C14.5226 36.3842 14.418 36.4009 14.3233 36.444C14.2285 36.487 14.1472 36.5548 14.0878 36.6403C14.0284 36.7257 13.9932 36.8256 13.9858 36.9294C13.9785 37.0332 13.9993 37.137 14.046 37.23L18.3983 45.8551C18.442 45.9415 18.5065 46.0155 18.5861 46.0705C18.6657 46.1255 18.7578 46.1597 18.854 46.17C18.9502 46.1804 19.0474 46.1665 19.1369 46.1297C19.2264 46.0929 19.3052 46.0343 19.3663 45.9592L25.4648 38.459Z" fill="white"/>
<path d="M60.7813 35.5428C60.7375 35.4565 60.6729 35.3825 60.5933 35.3275C60.5137 35.2725 60.4216 35.2383 60.3253 35.2279C60.2291 35.2176 60.1319 35.2315 60.0424 35.2683C59.9529 35.3051 59.874 35.3637 59.8129 35.4387L53.7155 42.9386C53.6499 43.0193 53.6073 43.1163 53.5923 43.2192C53.5772 43.3222 53.5902 43.4273 53.63 43.5234C53.6697 43.6196 53.7347 43.7032 53.8181 43.7654C53.9014 43.8277 54.0001 43.8663 54.1035 43.8771L56.3873 44.1229C56.0094 47.0183 54.9223 49.7755 53.2227 52.1497C50.7713 55.61 47.2229 58.1407 43.1529 59.3314C38.9425 60.5715 34.4385 60.3685 30.3567 58.7547C28.2864 57.9209 26.3651 56.7565 24.668 55.3069C22.9595 53.8185 21.5011 52.0653 20.3486 50.1144C20.3011 50.0346 20.226 49.9751 20.1375 49.9471C20.049 49.9192 19.9533 49.9247 19.8687 49.9627C19.8246 49.9832 19.785 50.0122 19.7522 50.048C19.7194 50.0838 19.694 50.1258 19.6774 50.1715C19.6608 50.2172 19.6534 50.2657 19.6557 50.3142C19.6579 50.3628 19.6697 50.4104 19.6903 50.4544C21.7879 54.8992 25.3194 58.5093 29.7168 60.7042C34.1143 62.8992 39.1222 63.5513 43.9352 62.5558C48.3503 61.6665 52.4083 59.5036 55.608 56.3341C58.8078 53.1647 61.0092 49.1275 61.9405 44.721L64.5528 45.002C64.6562 45.0133 64.7607 44.9965 64.8554 44.9534C64.95 44.9103 65.0313 44.8425 65.0907 44.7571C65.15 44.6717 65.1853 44.5719 65.1927 44.4681C65.2001 44.3644 65.1794 44.2606 65.1328 44.1676L60.7813 35.5428Z" fill="#FFCD34"/>
<path d="M41.539 43.9837C41.5478 43.5217 41.4331 43.0659 41.2067 42.6631C40.9296 42.2323 40.5267 41.8972 40.0526 41.7032C39.3492 41.4034 38.607 41.2045 37.8479 41.1126C36.6917 40.9613 35.5262 40.8927 34.3602 40.9073C34.5485 39.3176 34.7023 37.7022 34.8217 36.061C34.9411 34.4199 35.0352 32.8817 35.1041 31.4463H44.7183V34.6515H38.3079C38.2734 35.2668 38.2349 35.861 38.1923 36.4339C38.1498 37.0069 38.1029 37.5068 38.0517 37.9335C40.5473 38.1058 42.3892 38.6913 43.5772 39.6901C44.7652 40.6889 45.3592 42.0778 45.3592 43.857C45.3665 44.639 45.2184 45.4146 44.9236 46.1389C44.6339 46.8385 44.1864 47.4615 43.616 47.9594C42.9745 48.5057 42.2285 48.9157 41.4234 49.1644C40.4232 49.4727 39.3802 49.6199 38.3337 49.6004C37.8494 49.599 37.3655 49.5691 36.8847 49.5107C36.3804 49.4509 35.8933 49.374 35.4235 49.2799C34.9536 49.1859 34.5304 49.0875 34.1539 48.9846C33.8543 48.9097 33.5625 48.8067 33.2822 48.6771L33.9748 45.5232C34.5233 45.7514 35.0891 45.9358 35.6668 46.0747C36.4902 46.2675 37.3342 46.3578 38.1798 46.3435C39.3594 46.3435 40.2141 46.1086 40.7437 45.6387C40.9903 45.4387 41.1894 45.1865 41.3269 44.9004C41.4644 44.6142 41.5368 44.3011 41.539 43.9837Z" fill="white"/>
</g>
<defs>
<clipPath id="clip0">
<rect width="80" height="80.7546" fill="white"/>
</clipPath>
</defs>
</svg>
