<svg width="80" height="82" viewBox="0 0 80 82" fill="none" xmlns="http://www.w3.org/2000/svg">
<g clip-path="url(#clip0)">
<path d="M76.1209 40.9297C77.7558 40.9297 79.0811 39.6043 79.0811 37.9694C79.0811 36.3345 77.7558 35.0092 76.1209 35.0092C74.486 35.0092 73.1606 36.3345 73.1606 37.9694C73.1606 39.6043 74.486 40.9297 76.1209 40.9297Z" fill="#FFCD34"/>
<path d="M39.9974 40.9297C41.6323 40.9297 42.9576 39.6043 42.9576 37.9694C42.9576 36.3345 41.6323 35.0092 39.9974 35.0092C38.3625 35.0092 37.0371 36.3345 37.0371 37.9694C37.0371 39.6043 38.3625 40.9297 39.9974 40.9297Z" fill="#FFCD34"/>
<path d="M54.3286 41.2173L39.1761 53.6894L34.0167 45.3399L37.4961 43.8898L40.2182 48.2949L53.7046 37.1939L59.1676 32.0202L53.3928 35.1822L52.9541 32.3505C52.8287 31.7165 52.4819 31.1478 51.9757 30.7461C51.4695 30.3443 50.8369 30.1358 50.191 30.1577H28.2671C27.6213 30.1358 26.9888 30.3444 26.4826 30.7461C25.9765 31.1478 25.6298 31.7165 25.5045 32.3505L21.9334 55.3788C21.6952 56.9149 22.9992 58.2876 24.6961 58.2876H53.7621C55.459 58.2876 56.7629 56.9149 56.5248 55.3788L54.3286 41.2173Z" fill="#FFCD34"/>
<path d="M31.0633 37.4809C31.9164 37.4809 32.608 36.9127 32.608 36.2119C32.608 35.511 31.9164 34.9429 31.0633 34.9429C30.2102 34.9429 29.5186 35.511 29.5186 36.2119C29.5186 36.9127 30.2102 37.4809 31.0633 37.4809Z" fill="#1E5F30"/>
<path d="M47.3943 37.4809C48.2475 37.4809 48.9391 36.9127 48.9391 36.2119C48.9391 35.511 48.2475 34.9429 47.3943 34.9429C46.5412 34.9429 45.8496 35.511 45.8496 36.2119C45.8496 36.9127 46.5412 37.4809 47.3943 37.4809Z" fill="#1E5F30"/>
<path d="M47.3943 36.5838C47.2528 36.5967 47.1119 36.5532 47.0021 36.463C46.8924 36.3727 46.8226 36.2428 46.8079 36.1015V27.584C46.8079 24.1508 43.4073 21.3577 39.2277 21.3577C35.048 21.3577 31.6486 24.1508 31.6486 27.584V36.1015C31.6219 36.2371 31.5489 36.3592 31.4422 36.4469C31.3354 36.5347 31.2015 36.5826 31.0633 36.5826C30.9251 36.5826 30.7912 36.5347 30.6845 36.4469C30.5777 36.3592 30.5048 36.2371 30.478 36.1015V27.584C30.4965 26.5989 30.7365 25.6306 31.1802 24.7509C31.6239 23.8712 32.26 23.1027 33.0412 22.5024C34.815 21.1373 36.9905 20.3971 39.2288 20.3971C41.4671 20.3971 43.6426 21.1373 45.4164 22.5024C46.1977 23.1028 46.8337 23.8715 47.2774 24.7513C47.721 25.6311 47.9609 26.5996 47.9792 27.5848V36.1015C47.9645 36.2425 47.8949 36.3722 47.7855 36.4624C47.676 36.5526 47.5356 36.5962 47.3943 36.5838Z" fill="white"/>
<path d="M4.84601 22.2935L3.64688 25.025L5.53047 25.8515L6.68677 23.2162L7.79837 23.7045L6.64094 26.3395L10.3724 27.9785L9.85289 29.1611L2.01611 25.7189L3.73516 21.8052L4.84601 22.2935Z" fill="white"/>
<path d="M6.98033 16.6271L14.0053 21.5179L13.2686 22.5776L6.24365 17.6868L6.98033 16.6271Z" fill="white"/>
<path d="M14.5063 14.1305L9.99268 12.7586L11.0652 11.7541L14.2415 12.753L13.5134 9.46139L14.5942 8.44934L15.5867 13.1185L20.5354 14.6133L19.479 15.6024L15.8553 14.507L16.6701 18.2328L15.6021 19.234L14.5063 14.1305Z" fill="white"/>
<path d="M23.3483 4.50314L20.3358 6.14856L21.3219 7.95364L24.2465 6.3563L24.8288 7.42169L21.9042 9.01903L23.2758 11.5304L26.2878 9.88494L26.8698 10.9507L22.7239 13.2152L18.6201 5.70189L22.7656 3.43738L23.3483 4.50314Z" fill="white"/>
<path d="M29.6937 9.79315L27.7583 1.45374L29.5085 1.04764C30.1755 0.868955 30.8665 0.797063 31.5559 0.834638C32.1235 0.878119 32.6742 1.04779 33.1679 1.33127C33.6855 1.62364 34.1333 2.02514 34.4803 2.5079C34.8272 2.99067 35.0649 3.54314 35.177 4.12698C35.3333 4.70828 35.3584 5.31709 35.2504 5.90928C35.1423 6.50147 34.9038 7.06219 34.5522 7.5508C34.2301 8.01741 33.8132 8.41079 33.3287 8.70522C32.7323 9.03077 32.0892 9.26227 31.4222 9.39156L29.6937 9.79315ZM30.678 8.31828L31.2449 8.18643C31.7239 8.08783 32.1853 7.91749 32.6134 7.68116C33.1505 7.34886 33.5663 6.85235 33.799 6.26521C34.0318 5.67807 34.0692 5.03156 33.9057 4.4215C33.8248 4.00291 33.6549 3.6066 33.4074 3.25944C33.16 2.91228 32.8407 2.6224 32.4714 2.40943C31.8027 2.02926 30.9318 1.96377 29.8587 2.21296L29.2914 2.34444L30.678 8.31828Z" fill="white"/>
<path d="M46.4194 5.35661L45.7236 8.76315L44.458 8.50432L46.171 0.116821L47.605 0.409465C48.143 0.501607 48.6676 0.660095 49.1666 0.881302C49.509 1.05313 49.7999 1.31231 50.01 1.63263C50.2002 1.91183 50.3303 2.22751 50.3921 2.55965C50.4538 2.8918 50.4459 3.23315 50.3687 3.56206C50.3143 3.90771 50.1833 4.23682 49.9853 4.52534C49.7873 4.81386 49.5274 5.05449 49.2245 5.22964C48.541 5.58367 47.7507 5.67238 47.0058 5.4787L46.4194 5.35661ZM46.659 4.18341L47.1312 4.27995C48.2941 4.51737 48.9668 4.18879 49.1493 3.29421C49.3264 2.42867 48.8154 1.87344 47.6162 1.6285L47.1981 1.54323L46.659 4.18341Z" fill="white"/>
<path d="M55.9843 8.37736L56.783 12.8159L55.3604 12.128L54.6842 7.9089L54.4742 7.80785L52.9497 10.9634L51.7852 10.3999L55.5103 2.69165L56.8732 3.35019C57.8915 3.84282 58.5346 4.38979 58.8026 4.9911C58.9475 5.31542 59.0167 5.66842 59.0051 6.02343C58.9936 6.37844 58.9014 6.72618 58.7357 7.04036C58.5017 7.55575 58.0951 7.97332 57.5862 8.22108C57.0879 8.46241 56.5199 8.51783 55.9843 8.37736ZM54.9633 6.79392L55.3326 6.97274C56.4345 7.50494 57.1889 7.35016 57.5956 6.50842C57.9773 5.71952 57.632 5.06611 56.5599 4.54819L56.1466 4.34796L54.9633 6.79392Z" fill="white"/>
<path d="M65.3774 8.5901L60.1357 15.3585L59.1143 14.5677L64.3559 7.79895L65.3774 8.5901Z" fill="white"/>
<path d="M73.1732 17.4133L71.9918 18.3863C72.0359 17.5269 71.7692 16.6804 71.2404 16.0015C70.9816 15.6751 70.6567 15.4072 70.2869 15.2154C69.9171 15.0236 69.5109 14.9123 69.095 14.8888C68.6708 14.8529 68.2436 14.902 67.8387 15.0334C67.4337 15.1647 67.059 15.3756 66.7366 15.6537C66.4058 15.9137 66.131 16.238 65.9289 16.607C65.7267 16.9761 65.6014 17.3822 65.5604 17.801C65.5115 18.2136 65.5487 18.6319 65.6697 19.0294C65.7907 19.427 65.9928 19.7951 66.2632 20.1106C66.5079 20.4238 66.8177 20.6801 67.1712 20.8619C67.3574 20.9584 67.5522 21.0371 67.7531 21.0971C67.9941 21.1694 68.2391 21.2279 68.4868 21.2721L67.2847 22.2631C66.5187 21.9766 65.8412 21.4943 65.3199 20.8642C64.9427 20.4216 64.6592 19.9071 64.4867 19.3518C64.3142 18.7964 64.2563 18.2118 64.3165 17.6334C64.3628 17.0551 64.5272 16.4924 64.7995 15.9801C65.0718 15.4678 65.4462 15.0167 65.8996 14.6548C66.7222 13.968 67.7672 13.6052 68.8384 13.6345C69.4942 13.6339 70.1413 13.7831 70.7306 14.0707C71.3199 14.3584 71.8357 14.7768 72.2386 15.2942C72.735 15.9037 73.0579 16.6357 73.1732 17.4133Z" fill="white"/>
<path d="M77.0204 26.5057L75.6124 23.3757L73.7363 24.2194L75.103 27.2586L73.9959 27.7567L72.6289 24.7176L70.0195 25.8912L71.4275 29.0212L70.32 29.5197L68.3823 25.2112L76.1898 21.6991L78.1275 26.0076L77.0204 26.5057Z" fill="white"/>
<path d="M-0.0917969 48.1006L8.68752 45.5483L4.15887 53.3667L9.87162 51.7059L10.2326 52.9456L1.51155 55.4817L6.02442 47.6678L0.268843 49.3411L-0.0917969 48.1006Z" fill="white"/>
<path d="M7.27917 56.7844C7.75879 56.4562 8.30142 56.2313 8.8726 56.1241C9.44377 56.0168 10.031 56.0294 10.597 56.1612C11.1754 56.2723 11.7252 56.4993 12.2134 56.8285C12.7017 57.1578 13.1182 57.5825 13.4378 58.0771C14.0876 59.061 14.323 60.2614 14.093 61.4178C13.8629 62.5742 13.1859 63.5932 12.209 64.2534C11.7279 64.5869 11.1826 64.8163 10.6078 64.927C10.033 65.0376 9.44138 65.0272 8.87086 64.8962C7.74819 64.6607 6.75693 64.0074 6.09775 63.0686C5.43857 62.1298 5.16072 60.9756 5.32044 59.8397C5.39798 59.2165 5.61418 58.6185 5.95313 58.0898C6.29209 57.5611 6.7452 57.115 7.27917 56.7844ZM7.98917 57.8769C7.4532 58.2162 7.03129 58.7085 6.77794 59.2901C6.52458 59.8716 6.45142 60.5158 6.5679 61.1394C6.68438 61.763 6.98516 62.3373 7.43138 62.7882C7.8776 63.2391 8.44876 63.5459 9.07109 63.6689C9.48815 63.7524 9.91779 63.7507 10.3342 63.6639C10.7506 63.5772 11.1451 63.4071 11.4941 63.164C11.8533 62.9372 12.1626 62.6398 12.4034 62.2898C12.6442 61.9399 12.8115 61.5447 12.895 61.1283C13.0585 60.2993 12.8867 59.4394 12.4174 58.7368C11.9481 58.0342 11.2195 57.5463 10.3912 57.3799C9.97809 57.2942 9.55184 57.2941 9.13871 57.3796C8.72559 57.4651 8.33437 57.6343 7.98917 57.8769Z" fill="white"/>
<path d="M19.3214 69.1947L22.427 71.1887L24.2366 68.3712L25.3238 69.0696L20.699 76.2738L19.6118 75.5754L21.7722 72.2117L18.6647 70.2165L16.5047 73.5802L15.4175 72.8819L20.0434 65.6785L21.1306 66.3765L19.3214 69.1947Z" fill="white"/>
<path d="M28.7505 70.4217L25.5888 78.3775L24.3867 77.9008L27.5487 69.9449L28.7505 70.4217Z" fill="white"/>
<path d="M29.3735 79.7205L30.9611 71.3082L32.7267 71.6414C33.4083 71.7466 34.069 71.9589 34.6843 72.2703C35.1865 72.5388 35.6222 72.9162 35.9597 73.3748C36.2995 73.8628 36.5375 74.4142 36.6594 74.9962C36.7813 75.5782 36.7847 76.1788 36.6693 76.7621C36.554 77.3454 36.3222 77.8995 35.988 78.3913C35.6537 78.8831 35.2237 79.3025 34.7238 79.6244C34.241 79.9215 33.7009 80.1135 33.1388 80.1879C32.4618 80.2457 31.7798 80.1988 31.117 80.0489L29.3735 79.7205ZM30.8679 78.7667L31.4401 78.8749C31.9182 78.9778 32.4091 79.0077 32.8962 78.9636C33.5216 78.8759 34.1022 78.5889 34.5518 78.1453C35.0014 77.7017 35.296 77.125 35.3921 76.5007C35.4866 76.0849 35.4907 75.6537 35.4041 75.2362C35.3174 74.8188 35.142 74.4248 34.8898 74.081C34.4308 73.4639 33.66 73.0532 32.5776 72.8488L32.0058 72.741L30.8679 78.7667Z" fill="white"/>
<path d="M39.757 81.1172L39.1646 72.5787L40.9572 72.4543C41.6432 72.3834 42.3361 72.4215 43.0102 72.567C43.564 72.6997 44.0812 72.9544 44.5238 73.3127C44.9759 73.699 45.3455 74.1724 45.6106 74.7047C45.8758 75.237 46.0309 75.8172 46.0669 76.4108C46.1028 77.0044 46.0188 77.5991 45.8198 78.1594C45.6209 78.7198 45.3111 79.2344 44.9089 79.6724C44.5173 80.0821 44.0437 80.4046 43.5189 80.6187C42.8785 80.8457 42.2069 80.9724 41.5279 80.9944L39.757 81.1172ZM40.9621 79.8163L41.5425 79.7761C42.031 79.7543 42.5134 79.6591 42.9734 79.4936C43.5565 79.2505 44.0458 78.8259 44.3686 78.2829C44.6914 77.7399 44.8307 77.1072 44.7657 76.4788C44.752 76.0527 44.6468 75.6346 44.4572 75.2527C44.2677 74.8708 43.9983 74.5341 43.6673 74.2654C43.0662 73.7846 42.2167 73.5823 41.1188 73.6587L40.5376 73.6985L40.9621 79.8163Z" fill="white"/>
<path d="M52.3628 71.3898L49.087 72.4123L49.6998 74.3763L52.8805 73.3827L53.2427 74.5416L50.0619 75.5352L50.915 78.2659L54.1908 77.243L54.5526 78.4023L50.0446 79.8103L47.4912 71.6396L51.9992 70.2312L52.3628 71.3898Z" fill="white"/>
<path d="M58.2044 76.8989L53.3823 69.1309L62.1312 71.389L58.9944 66.3337L60.0917 65.6522L64.8815 73.3677L56.1416 71.1242L59.3021 76.2171L58.2044 76.8989Z" fill="white"/>
<path d="M68.0373 58.4912L66.2382 60.8707L67.8791 62.1104L69.6147 59.8151L70.5832 60.5472L68.8476 62.8429L72.0982 65.3009L71.3191 66.3314L64.4902 61.1682L67.0688 57.7583L68.0373 58.4912Z" fill="white"/>
<path d="M71.13 52.4769L69.6427 55.5701L71.4966 56.4615L72.9407 53.4585L74.035 53.9844L72.5909 56.9875L75.171 58.2283L76.6587 55.1354L77.7526 55.6614L75.7037 59.9188L67.9883 56.2087L70.0357 51.9513L71.13 52.4769Z" fill="white"/>
<path d="M72.9542 45.8098L72.1405 49.1442L74.1387 49.6326L74.9276 46.3951L76.1068 46.6832L75.3179 49.9203L78.0979 50.5988L78.9116 47.2644L80.0915 47.5525L78.9717 52.1424L70.6548 50.1138L71.7746 45.5243L72.9542 45.8098Z" fill="white"/>
<path d="M39.9974 40.9297C41.6323 40.9297 42.9576 39.6043 42.9576 37.9694C42.9576 36.3345 41.6323 35.0092 39.9974 35.0092C38.3625 35.0092 37.0371 36.3345 37.0371 37.9694C37.0371 39.6043 38.3625 40.9297 39.9974 40.9297Z" fill="#FFCD34"/>
<path d="M3.30986 40.9297C4.94476 40.9297 6.27011 39.6043 6.27011 37.9694C6.27011 36.3345 4.94476 35.0092 3.30986 35.0092C1.67496 35.0092 0.349609 36.3345 0.349609 37.9694C0.349609 39.6043 1.67496 40.9297 3.30986 40.9297Z" fill="#FFCD34"/>
</g>
<defs>
<clipPath id="clip0">
<rect width="80" height="81.2341" fill="white"/>
</clipPath>
</defs>
</svg>
