<svg width="80" height="82" viewBox="0 0 80 82" fill="none" xmlns="http://www.w3.org/2000/svg">
<g clip-path="url(#clip0)">
<path d="M5.55467 27.9148C5.03488 27.6549 4.57483 27.2897 4.20374 26.8424C3.83265 26.3951 3.55864 25.8756 3.3991 25.3167C3.21516 24.7569 3.14656 24.1657 3.19744 23.5786C3.24832 22.9916 3.41762 22.421 3.69513 21.9012C3.95564 21.3776 4.32063 20.9129 4.7676 20.5358C5.21457 20.1587 5.73403 19.8771 6.29398 19.7084C6.8484 19.5182 7.43599 19.4439 8.0203 19.4902C8.60462 19.5364 9.17319 19.7023 9.69076 19.9774C10.2157 20.2362 10.6809 20.6016 11.0567 21.0503C11.4326 21.499 11.7107 22.0212 11.8734 22.5834C12.2126 23.6792 12.1228 24.863 11.6224 25.8951C11.1219 26.9273 10.248 27.7309 9.1776 28.1432C8.59496 28.378 7.96715 28.4794 7.34024 28.4399C6.71332 28.4003 6.10321 28.2209 5.55467 27.9148ZM6.16513 26.7638C6.54502 26.9746 6.96504 27.103 7.39785 27.1408C7.83066 27.1785 8.26657 27.1247 8.67721 26.9828C9.47289 26.7235 10.1331 26.159 10.513 25.4134C10.8928 24.6677 10.9612 23.8017 10.7032 23.0056C10.5738 22.6004 10.3637 22.2255 10.0855 21.9036C9.80741 21.5817 9.467 21.3194 9.08481 21.1326C8.7122 20.9287 8.30206 20.8027 7.87928 20.7621C7.4565 20.7216 7.02989 20.7673 6.62532 20.8966C5.82104 21.1562 5.15245 21.724 4.76607 22.4756C4.3797 23.2273 4.30705 24.1014 4.56404 24.9065C4.68996 25.309 4.89699 25.6814 5.17235 26.0009C5.44771 26.3203 5.78558 26.5799 6.16513 26.7638Z" fill="white"/>
<path d="M16.4341 18.4586L10.5361 11.4712L19.5198 12.4345L15.682 7.88889L16.6689 7.05566L22.5293 13.995L13.5546 13.0457L17.4213 17.625L16.4341 18.4586Z" fill="white"/>
<path d="M28.6365 2.70052L25.4197 3.89664L26.1364 5.82493L29.2601 4.66337L29.6831 5.80164L26.5594 6.9632L27.5565 9.64471L30.7737 8.44858L31.1967 9.58648L26.7694 11.2323L23.7852 3.20879L28.2124 1.56262L28.6365 2.70052Z" fill="white"/>
<path d="M45.5006 5.18629L43.5771 -0.0812988L45.0422 0.171525L46.3879 3.87634L48.9049 0.839835L50.3699 1.09341L46.7771 5.40643L46.1467 9.0504L44.8736 8.83025L45.5006 5.18629Z" fill="white"/>
<path d="M60.4325 6.72885L57.3896 5.14466L56.44 6.96927L59.3961 8.50763L58.8356 9.58466L55.8795 8.04631L54.5586 10.5843L57.6015 12.1689L57.041 13.2459L52.8501 11.067L56.8025 3.47107L60.993 5.64993L60.4325 6.72885Z" fill="white"/>
<path d="M65.9761 18.285L63.443 15.6362L61.281 16.3841L60.3193 15.3781L69.8237 12.1511L66.0723 21.3925L65.0956 20.3707L65.9761 18.285ZM66.4897 17.0652L67.7158 14.135L64.6925 15.1869L66.4897 17.0652Z" fill="white"/>
<path d="M72.7243 26.1656L70.5079 30.0939L69.8505 28.657L72.0196 24.9755L71.9227 24.7636L68.7374 26.2215L68.2002 25.0464L75.9844 21.484L76.6144 22.8604C77.085 23.889 77.2316 24.7204 77.0543 25.3545C76.9593 25.6967 76.7877 26.0128 76.5525 26.2789C76.3173 26.5449 76.0246 26.754 75.6966 26.8902C75.1877 27.1382 74.6081 27.2008 74.058 27.0672C73.5202 26.9352 73.0472 26.6154 72.7243 26.1656ZM72.9471 24.2951L73.1184 24.6682C73.6273 25.7806 74.307 26.1423 75.1575 25.7531C75.954 25.3887 76.1042 24.6654 75.6083 23.5832L75.4171 23.1647L72.9471 24.2951Z" fill="white"/>
<path d="M9.93526 52.6991L6.10759 57.5009L12.5848 56.4306L8.39728 61.4416L14.5342 60.6152L15.2389 61.8282L5.44492 63.0942L9.58401 58.1433L3.18115 59.2079L9.22938 51.4861L9.93526 52.6991Z" fill="white"/>
<path d="M16.8564 71.4719L14.0321 69.1363L11.9719 70.1303L10.8994 69.2434L19.9631 64.9323L17.3128 74.5493L16.2234 73.6477L16.8564 71.4719ZM17.2241 70.201L18.1013 67.1487L15.2203 68.5432L17.2241 70.201Z" fill="white"/>
<path d="M26.496 75.0223L27.5712 79.4022L26.1084 78.8049L25.1692 74.635L24.9539 74.5471L23.6293 77.7929L22.4336 77.3045L25.6685 69.3779L27.0697 69.9501C28.1173 70.3776 28.7935 70.8831 29.0983 71.4666C29.2633 71.7812 29.3546 72.1291 29.3654 72.4841C29.3761 72.8391 29.306 73.192 29.1603 73.5159C28.9588 74.0449 28.5793 74.4873 28.087 74.7669C27.6041 75.0391 27.0399 75.1297 26.496 75.0223ZM25.3784 73.5061L25.7582 73.6613C26.8908 74.1236 27.6338 73.9219 27.9874 73.0561C28.3188 72.2451 27.9333 71.6147 26.8311 71.1646L26.4051 70.9907L25.3784 73.5061Z" fill="white"/>
<path d="M36.6051 77.4106L38.8591 81.3152L37.2877 81.1507L35.2215 77.4106L34.9909 77.3873L34.6261 80.8727L33.3413 80.7379L34.2331 72.2238L35.7388 72.3815C36.8636 72.4995 37.6538 72.7959 38.1096 73.2707C38.3559 73.5268 38.5408 73.8354 38.6502 74.1734C38.7597 74.5113 38.7909 74.8698 38.7415 75.2216C38.6964 75.7866 38.4553 76.318 38.0601 76.7242C37.6723 77.119 37.1564 77.3624 36.6051 77.4106ZM35.1084 76.267L35.5164 76.3095C36.7333 76.4372 37.3905 76.0365 37.4879 75.1074C37.5791 74.2363 37.0329 73.7387 35.8493 73.6145L35.3917 73.5664L35.1084 76.267Z" fill="white"/>
<path d="M49.378 78.0258L45.7836 78.7396L45.254 80.965L43.8892 81.2363L46.2686 71.4858L52.0513 79.6126L50.6647 79.8884L49.378 78.0258ZM48.6244 76.9364L46.8115 74.3293L46.074 77.4439L48.6244 76.9364Z" fill="white"/>
<path d="M57.6275 77.3915L52.9316 69.5476L61.6437 71.9436L58.5869 66.8395L59.6955 66.1757L64.3587 73.9689L55.6552 71.5871L58.7357 76.7296L57.6275 77.3915Z" fill="white"/>
<path d="M65.2195 62.3195L70.6855 67.2279L69.8215 68.1893L64.3555 63.2808L63.0407 64.7459L62.1372 63.9345L65.6271 60.0486L66.5302 60.8578L65.2195 62.3195Z" fill="white"/>
<path d="M72.9358 57.3415L67.3384 57.7171L67.9905 56.382L71.9238 56.1251L69.7111 52.8598L70.3632 51.5247L73.5012 56.1795L76.8243 57.8028L76.2604 58.9647L72.9358 57.3415Z" fill="white"/>
<path d="M61.5904 27.4611C61.5419 26.6347 61.1772 26.2763 60.3346 26.1159C56.8264 25.4528 53.381 24.4925 50.0357 23.2454C46.6922 21.9527 43.478 20.417 40.8784 17.8565C40.7639 17.7349 40.6252 17.6385 40.4713 17.5734C40.3174 17.5084 40.1516 17.4762 39.9846 17.4788C39.8175 17.4814 39.6529 17.5188 39.5011 17.5886C39.3493 17.6584 39.2137 17.7591 39.103 17.8843C37.4269 19.4544 35.5053 20.7398 33.4143 21.6898C29.0288 23.7935 24.3686 25.0287 19.6229 25.9401C18.7261 26.1189 18.3678 26.4829 18.3456 27.3875C18.3058 28.5449 18.3272 29.7106 18.3223 30.8767C18.2015 36.1635 19.0133 41.4302 20.7206 46.4353C23.8416 55.4362 29.5743 62.063 38.4163 65.8598C38.8487 66.0628 39.3199 66.1697 39.7975 66.1732C40.2752 66.1766 40.7479 66.0765 41.1831 65.8797C48.5211 62.8038 53.9253 57.6926 57.3957 50.5462C60.9161 43.2515 62.0273 35.4861 61.5904 27.4611Z" fill="#FFCD34"/>
<path d="M39.8204 66.7649C39.2552 66.7589 38.6976 66.6348 38.1832 66.4005C29.4832 62.6656 23.4196 56.0133 20.1659 46.6284C18.4411 41.5576 17.6184 36.2237 17.735 30.8688C17.735 30.5266 17.735 30.1787 17.735 29.8312C17.7331 29.0239 17.7312 28.1892 17.759 27.3676C17.7857 26.2185 18.3259 25.5975 19.5096 25.3612C25.0755 24.2928 29.4122 22.9569 33.1613 21.1579C35.1959 20.2387 37.0649 18.9901 38.693 17.4624C38.8589 17.284 39.0594 17.1412 39.2823 17.0428C39.5051 16.9445 39.7457 16.8926 39.9894 16.8903C40.233 16.8881 40.4745 16.9355 40.6991 17.0298C40.9238 17.124 41.1269 17.263 41.296 17.4384C43.9407 20.0433 47.3067 21.5583 50.2504 22.6958C53.5634 23.9342 56.9767 24.8852 60.4527 25.5385C61.5666 25.75 62.1181 26.3503 62.1808 27.4274V27.43C62.6602 36.2345 61.2698 43.88 57.9298 50.8024C54.5818 57.8991 48.6856 63.4759 41.4136 66.4238C40.9107 66.643 40.369 66.759 39.8204 66.7649ZM40.0124 18.0695C39.9186 18.0738 39.8266 18.0966 39.7417 18.1367C39.6569 18.1768 39.5808 18.2334 39.518 18.3032C37.798 19.9225 35.8222 21.2465 33.6704 22.2214C29.8266 24.0663 25.3982 25.4318 19.7332 26.519C19.0498 26.6554 18.9488 26.8297 18.9352 27.4014C18.9078 28.2076 18.9097 29.0315 18.9116 29.8282C18.9116 30.1789 18.9116 30.5295 18.9116 30.8801C18.7968 36.0999 19.5978 41.2994 21.2783 46.2426C24.4196 55.3014 30.2638 61.7201 38.6495 65.3189C39.0094 65.49 39.4025 65.5801 39.801 65.5831C40.1996 65.5861 40.5939 65.5018 40.9564 65.3362C47.9606 62.4969 53.6398 57.1258 56.8651 50.2908C60.1161 43.5521 61.4689 36.0955 61.0008 27.495C60.9712 26.9942 60.8596 26.8188 60.224 26.6974C56.6803 26.0312 53.2005 25.0612 49.8233 23.798C46.7665 22.6151 43.2641 21.0373 40.4643 18.2776C40.4066 18.2147 40.3369 18.1638 40.2593 18.1281C40.1817 18.0923 40.0977 18.0724 40.0124 18.0695Z" fill="white"/>
<path d="M31.0815 35.4434C31.7184 35.1832 32.383 34.8845 33.0752 34.5471C33.7674 34.2098 34.4436 33.8397 35.1038 33.437C35.7635 33.0343 36.3957 32.6085 37.0005 32.1597C37.5842 31.7315 38.1309 31.2551 38.6351 30.7356L42.0563 30.7499L41.962 53.5475L37.0599 53.5273L37.1279 37.1107C36.4263 37.5691 35.6874 37.9677 34.919 38.3023C34.1058 38.6604 33.3149 38.9697 32.5463 39.2302L31.0815 35.4434Z" fill="#18365A"/>
<path d="M3.63066 43.2625C5.26556 43.2625 6.59091 41.9372 6.59091 40.3023C6.59091 38.6674 5.26556 37.342 3.63066 37.342C1.99576 37.342 0.67041 38.6674 0.67041 40.3023C0.67041 41.9372 1.99576 43.2625 3.63066 43.2625Z" fill="#FFCD34"/>
<path d="M76.3694 43.2625C78.0043 43.2625 79.3297 41.9372 79.3297 40.3023C79.3297 38.6674 78.0043 37.342 76.3694 37.342C74.7345 37.342 73.4092 38.6674 73.4092 40.3023C73.4092 41.9372 74.7345 43.2625 76.3694 43.2625Z" fill="#FFCD34"/>
</g>
<defs>
<clipPath id="clip0">
<rect width="80" height="81.2341" fill="white"/>
</clipPath>
</defs>
</svg>
