<svg width="80" height="80" viewBox="0 0 80 80" fill="none" xmlns="http://www.w3.org/2000/svg">
<g clip-path="url(#clip0)">
<path d="M5.24242 33.3362L8.64032 34.0551L8.36872 35.2992L0 33.5282L0.307295 32.1191C0.405378 31.5901 0.569407 31.075 0.795661 30.5856C0.970606 30.2508 1.23177 29.9672 1.553 29.7632C1.83414 29.5788 2.15113 29.4539 2.48387 29.3966C2.8166 29.3393 3.1578 29.3507 3.48581 29.4302C3.83098 29.4872 4.15885 29.6194 4.44542 29.8173C4.732 30.0152 4.97004 30.2736 5.14212 30.5737C5.48903 31.2502 5.56932 32.0292 5.36752 32.7606L5.24242 33.3362ZM4.07147 33.0884L4.17252 32.6241C4.42297 31.4811 4.1014 30.8152 3.20781 30.6263C2.34378 30.4435 1.78329 30.9412 1.52633 32.1194L1.43692 32.5301L4.07147 33.0884Z" fill="white"/>
<path d="M8.05823 24.5393L12.4892 23.7143L11.813 25.1201L7.60104 25.8231L7.50187 26.0306L10.6691 27.506L10.1176 28.6566L2.37891 25.0547L3.0243 23.7069C3.50741 22.7006 4.04862 22.0627 4.64793 21.7931C4.97086 21.6474 5.32323 21.576 5.67833 21.5843C6.03344 21.5925 6.38198 21.6803 6.69756 21.8408C7.21531 22.0668 7.63675 22.4637 7.88918 22.9629C8.13445 23.4518 8.1944 24.0108 8.05823 24.5393ZM6.48419 25.5585L6.65925 25.1927C7.18192 24.1035 7.02051 23.3622 6.17501 22.9688C5.38261 22.5989 4.73233 22.9442 4.22418 24.0047L4.02771 24.4172L6.48419 25.5585Z" fill="white"/>
<path d="M9.82768 19.7063C9.38627 19.3339 9.02833 18.8752 8.77663 18.3593C8.52492 17.8434 8.38494 17.2816 8.36559 16.7096C8.32269 16.1311 8.39923 15.5501 8.59061 15.0015C8.78198 14.453 9.08421 13.9483 9.47906 13.5179C9.85856 13.0798 10.3252 12.7228 10.8501 12.4689C11.3751 12.2151 11.9472 12.0699 12.5313 12.0422C13.1153 11.9928 13.7034 12.0621 14.2591 12.2456C14.8148 12.4291 15.3264 12.723 15.7621 13.1091C16.2087 13.4817 16.5716 13.9418 16.8276 14.4602C17.0835 14.9786 17.2269 15.5438 17.2486 16.1199C17.3125 17.2477 16.9389 18.3574 16.2035 19.2243C15.468 20.0912 14.4256 20.6505 13.2872 20.7891C12.665 20.8744 12.0314 20.8214 11.4328 20.634C10.8341 20.4466 10.2857 20.1296 9.82768 19.7063ZM10.6985 18.7518C11.016 19.0438 11.3924 19.2667 11.8032 19.4061C12.214 19.5454 12.65 19.598 13.0828 19.5605C13.9179 19.5026 14.6955 19.1208 15.2449 18.4988C15.7942 17.8768 16.0705 17.0655 16.013 16.2431C15.9391 15.404 15.5396 14.6252 14.8976 14.0688C14.2555 13.5124 13.4204 13.2212 12.5659 13.2556C11.7229 13.312 10.937 13.695 10.3802 14.3209C9.82346 14.9468 9.54129 15.7645 9.59552 16.5949C9.62008 17.0095 9.73061 17.4148 9.92031 17.7858C10.11 18.1567 10.3748 18.4855 10.6985 18.7518Z" fill="white"/>
<path d="M20.4676 6.27561L17.9792 7.89529L19.1133 9.58564L21.5142 8.02293L22.1836 9.02182L19.7827 10.5845L22.03 13.933L20.9522 14.636L16.2319 7.59933L19.7974 5.27783L20.4676 6.27561Z" fill="white"/>
<path d="M28.4472 2.83335L25.2416 4.04164L25.9772 5.93398L29.0896 4.76047L29.5235 5.87701L26.4114 7.05052L27.4344 9.68167L30.6399 8.47227L31.0738 9.58918L26.662 11.254L23.6011 3.37978L28.0129 1.71497L28.4472 2.83335Z" fill="white"/>
<path d="M37.3551 1.24795L36.4021 1.99268C36.2381 1.75204 36.0168 1.55465 35.7574 1.41776C35.526 1.32278 35.2716 1.29568 35.0249 1.3397C34.7012 1.37125 34.4008 1.51932 34.1811 1.75553C34.0815 1.85855 34.0072 1.98267 33.9639 2.11838C33.9206 2.25408 33.9094 2.39776 33.9313 2.53837C33.9876 2.94557 34.3406 3.23266 34.9903 3.39963L35.8836 3.62716C36.4939 3.75102 37.0617 4.02692 37.5328 4.42849C37.9156 4.80001 38.1554 5.29093 38.2113 5.81732C38.2709 6.16925 38.2558 6.52954 38.1667 6.8754C38.0777 7.22126 37.9167 7.54515 37.694 7.82657C37.4717 8.10985 37.1937 8.34606 36.8765 8.52107C36.5594 8.69607 36.2097 8.80627 35.8483 8.84507C35.1821 8.95842 34.4972 8.81538 33.9351 8.44551C33.3681 8.02801 32.9669 7.42875 32.8005 6.75109L34.0583 6.29604C34.1233 6.65299 34.2773 6.98846 34.5064 7.27237C34.6543 7.41121 34.8298 7.51831 35.0219 7.58686C35.2139 7.65542 35.4184 7.68394 35.6222 7.67061C35.8261 7.65729 36.0249 7.60242 36.2061 7.50948C36.3873 7.41653 36.5469 7.28754 36.6748 7.13067C36.7877 6.98118 36.8687 6.81073 36.9129 6.62959C36.9571 6.44844 36.9637 6.26035 36.9321 6.07666C36.9129 5.92504 36.8689 5.77749 36.8018 5.63974C36.7364 5.50918 36.6462 5.39215 36.5362 5.29494C36.4101 5.18573 36.2684 5.09524 36.1158 5.02635C35.926 4.93952 35.7289 4.86897 35.5267 4.81547L34.6627 4.58979C33.4355 4.26152 32.7573 3.63259 32.6281 2.703C32.5818 2.4042 32.6038 2.09897 32.6927 1.80965C32.7815 1.52032 32.9349 1.25421 33.1416 1.03078C33.5838 0.532347 34.2009 0.217014 34.8693 0.148062C35.3468 0.082523 35.8333 0.150968 36.273 0.345531C36.7128 0.540094 37.0878 0.852881 37.3551 1.24795Z" fill="white"/>
<path d="M46.4747 1.64356L45.3728 2.15522C45.2684 1.88477 45.0986 1.6435 44.8781 1.45229C44.64 1.29626 44.3613 1.21103 44.0753 1.20676C43.7893 1.2025 43.5081 1.27939 43.2653 1.42825C43.1444 1.50608 43.0432 1.61025 42.9696 1.7327C42.896 1.85515 42.8519 1.99262 42.8408 2.1345C42.8013 2.54392 43.0786 2.90253 43.6729 3.21034L44.49 3.63209C45.0557 3.88956 45.5449 4.28542 45.9112 4.78193C46.1974 5.22979 46.3169 5.76159 46.2493 6.28655C46.2261 6.64259 46.1281 6.99001 45.9615 7.30678C45.7948 7.62355 45.5632 7.90277 45.2812 8.12673C44.9993 8.35292 44.674 8.52072 44.3247 8.62009C43.9754 8.71945 43.6093 8.74832 43.2484 8.70498C42.5735 8.66624 41.9396 8.37336 41.4779 7.887C41.0219 7.35376 40.7694 6.68034 40.7642 5.98319L42.094 5.82188C42.0746 6.18399 42.1469 6.54517 42.3044 6.87294C42.4163 7.0413 42.5624 7.18495 42.7336 7.29478C42.9048 7.4046 43.0973 7.47821 43.2989 7.51094C43.5005 7.54367 43.7068 7.5348 43.9047 7.4849C44.1026 7.43501 44.2879 7.34516 44.4487 7.22107C44.5932 7.10085 44.7115 6.95306 44.7965 6.7866C44.8815 6.62014 44.9313 6.43846 44.9431 6.25251C44.9593 6.10057 44.9506 5.94704 44.9172 5.79783C44.8848 5.65591 44.8254 5.52133 44.7421 5.40124C44.6444 5.26673 44.5275 5.14685 44.395 5.04534C44.2297 4.91855 44.0537 4.8058 43.869 4.7083L43.0801 4.29469C41.9602 3.70029 41.4454 2.93571 41.5358 2.00094C41.5597 1.69965 41.6517 1.40743 41.8051 1.14564C41.9584 0.883852 42.1692 0.6591 42.422 0.487808C42.9679 0.101557 43.642 -0.0671979 44.3089 0.0153704C44.7889 0.05868 45.2467 0.234433 45.6298 0.522442C46.0129 0.810451 46.3057 1.19904 46.4747 1.64356Z" fill="white"/>
<path d="M52.1257 1.73088L49.7421 9.82855L48.5024 9.47413L50.8864 1.37683L52.1257 1.73088Z" fill="white"/>
<path d="M54.3124 6.66465C54.5951 6.1646 54.9801 5.72785 55.4432 5.3821C55.9063 5.03634 56.4373 4.78913 57.0026 4.65614C57.5697 4.49979 58.1631 4.45813 58.747 4.53367C59.3309 4.6092 59.8932 4.80037 60.4001 5.09566C60.9118 5.37441 61.3602 5.75351 61.7173 6.20956C62.0745 6.6656 62.333 7.1889 62.4768 7.74715C62.6425 8.30073 62.6909 8.88193 62.619 9.4547C62.5472 10.0275 62.3566 10.5796 62.059 11.0768C61.7776 11.5822 61.3922 12.0242 60.9274 12.3746C60.4626 12.7249 59.9287 12.9759 59.3599 13.1116C58.2503 13.3981 57.0716 13.2587 56.0624 12.7216C55.0533 12.1845 54.289 11.2899 53.9243 10.2189C53.7155 9.63547 53.642 9.01344 53.7092 8.39842C53.7763 7.7834 53.9824 7.19099 54.3124 6.66465ZM55.4353 7.31541C55.208 7.67997 55.0612 8.0876 55.0045 8.51174C54.9478 8.93589 54.9824 9.36705 55.1062 9.77712C55.3304 10.5711 55.8653 11.2451 56.5935 11.6512C57.3218 12.0572 58.1839 12.1621 58.9906 11.9429C59.4011 11.8332 59.7848 11.6429 60.1186 11.3834C60.4525 11.1238 60.7295 10.8004 60.9332 10.4327C61.1532 10.0748 61.2971 9.67661 61.3562 9.26229C61.4153 8.84797 61.3883 8.42615 61.2769 8.0224C61.0529 7.22014 60.5151 6.53801 59.7814 6.12542C59.0477 5.71283 58.1779 5.60342 57.3625 5.82115C56.9547 5.92751 56.5733 6.11496 56.2419 6.37194C55.9105 6.62893 55.636 6.95001 55.4353 7.31541Z" fill="white"/>
<path d="M61.5361 16.1413L68.3387 10.1254L67.6509 18.9974L72.077 15.0828L72.941 16.0295L66.1831 22.0055L66.8593 13.1442L62.3983 17.088L61.5361 16.1413Z" fill="white"/>
<path d="M71.9774 27.559L70.4395 24.2827L68.1517 24.2893L67.5679 23.0455L77.6045 23.0722L71.0608 30.4847L70.4676 29.2209L71.9774 27.559ZM72.8584 26.5864L74.9677 24.2486L71.7671 24.262L72.8584 26.5864Z" fill="white"/>
<path d="M79.9998 31.9661L72.7941 33.3775L73.2855 35.8093L72.0943 36.0423L71.3516 32.3631L79.7477 30.7183L79.9998 31.9661Z" fill="white"/>
<path d="M10.7596 52.6821L2.85109 55.9096L2.35596 54.7342L10.2649 51.5063L10.7596 52.6821Z" fill="white"/>
<path d="M5.15967 60.6936L12.5291 55.3636L10.9607 64.1269L15.7553 60.6585L16.5206 61.6837L9.20033 66.9785L10.7556 58.2249L5.92452 61.7196L5.15967 60.6936Z" fill="white"/>
<path d="M21.941 67.6452L20.7317 67.5035C20.7891 67.2194 20.7752 66.9258 20.6912 66.6481C20.5966 66.4194 20.4367 66.2226 20.231 66.0814C19.9803 65.8774 19.6618 65.772 19.3369 65.7854C19.1925 65.7884 19.0507 65.8239 18.9224 65.8892C18.7941 65.9546 18.6827 66.048 18.5968 66.1624C18.3429 66.4892 18.385 66.9381 18.7231 67.509L19.1885 68.2934C19.5295 68.8072 19.7313 69.3984 19.7745 70.0107C19.7766 70.5399 19.592 71.0534 19.2524 71.4635C19.0412 71.7534 18.7711 71.9969 18.4592 72.1784C18.1474 72.36 17.8006 72.4757 17.4409 72.5183C17.0802 72.5629 16.714 72.5353 16.3644 72.4372C16.0148 72.339 15.6889 72.1723 15.4063 71.9471C14.8546 71.5622 14.4747 70.9828 14.3454 70.3292C14.2462 69.639 14.3949 68.9363 14.7658 68.3426L15.9799 68.9005C15.7688 69.1974 15.6359 69.5412 15.593 69.9012C15.5971 70.1024 15.6435 70.3005 15.7295 70.4831C15.8154 70.6657 15.939 70.8286 16.0923 70.9617C16.2456 71.0947 16.4253 71.1949 16.62 71.2559C16.8148 71.3168 17.0202 71.3373 17.2234 71.3159C17.4104 71.2893 17.59 71.2258 17.7514 71.1291C17.9128 71.0324 18.0526 70.9045 18.1626 70.7532C18.2578 70.6326 18.333 70.4979 18.3853 70.354C18.433 70.2161 18.4535 70.0704 18.4458 69.9249C18.4358 69.7599 18.4013 69.5972 18.3433 69.4421C18.272 69.2484 18.1841 69.0612 18.0803 68.8823L17.6329 68.1191C17.0038 67.0302 16.9787 66.1129 17.5577 65.3674C17.7402 65.1243 17.9756 64.9245 18.2465 64.7825C18.5175 64.6406 18.8173 64.56 19.1239 64.5468C19.7955 64.5048 20.4583 64.7145 20.9793 65.1339C21.3633 65.421 21.6572 65.809 21.8273 66.2532C21.9974 66.6974 22.0368 67.1799 21.941 67.6452Z" fill="white"/>
<path d="M24.4979 73.2204L23.0948 76.3529L21.9126 75.8394L25.3687 68.1257L26.7084 68.7073C27.215 68.9086 27.6945 69.1708 28.1359 69.4879C28.4335 69.7244 28.6626 70.034 28.8001 70.3854C28.9268 70.6938 28.9871 71.0248 28.9769 71.3573C28.9668 71.6899 28.8864 72.0167 28.7411 72.317C28.6146 72.6384 28.4168 72.9279 28.162 73.1643C27.9073 73.4007 27.6021 73.578 27.2688 73.6833C26.5258 73.8807 25.7349 73.8006 25.0483 73.4583L24.4979 73.2204ZM24.9818 72.142L25.4232 72.3336C26.5089 72.8052 27.2359 72.6296 27.6043 71.8068C27.9612 71.0109 27.5798 70.3697 26.46 69.883L26.0697 69.7132L24.9818 72.142Z" fill="white"/>
<path d="M36.6945 72.7248L33.3173 72.1225L32.9506 74.1162L36.2298 74.7007L36.0134 75.8772L32.7346 75.2927L32.2245 78.0651L35.6021 78.6674L35.3853 79.8443L30.7368 79.0152L32.2624 70.7192L36.9109 71.5479L36.6945 72.7248Z" fill="white"/>
<path d="M46.146 71.6982L46.2669 73.201C45.5881 72.6802 44.7416 72.4175 43.8822 72.4611C43.4664 72.4857 43.0606 72.5968 42.6915 72.787C42.3225 72.9772 41.9985 73.2422 41.7409 73.5647C41.4684 73.8868 41.264 74.2593 41.1397 74.6603C41.0154 75.0613 40.9736 75.4827 41.017 75.8998C41.0405 76.3136 41.1488 76.7184 41.3354 77.0898C41.522 77.4613 41.783 77.7917 42.1027 78.0611C42.4129 78.3334 42.7771 78.5393 43.1722 78.6659C43.5674 78.7925 43.9849 78.837 44.3984 78.7966C44.7957 78.7766 45.1839 78.6716 45.5359 78.4888C45.7216 78.393 45.8977 78.2801 46.0618 78.1518C46.2593 77.9984 46.4474 77.8337 46.6253 77.6586L46.7485 79.188C46.0759 79.6449 45.2932 79.9198 44.4788 79.9853C43.8996 80.0401 43.3151 79.9785 42.7608 79.8042C42.2065 79.63 41.6939 79.3467 41.254 78.9716C40.8066 78.6076 40.4397 78.1572 40.1759 77.6482C39.9121 77.1392 39.757 76.5823 39.7202 76.0119C39.6287 74.9606 39.9299 73.9126 40.5673 73.0645C40.9426 72.5348 41.4358 72.0966 42.0093 71.7832C42.5827 71.4698 43.2212 71.2895 43.8762 71.2561C44.6594 71.2 45.4434 71.3527 46.146 71.6982Z" fill="white"/>
<path d="M51.4913 70.8691L53.852 77.7208L52.6285 78.1277L50.2682 71.2761L48.4041 71.8987L48.0142 70.7666L52.9605 69.114L53.3505 70.2461L51.4913 70.8691Z" fill="white"/>
<path d="M56.4167 67.2733L60.6083 74.6248L59.4813 75.2478L55.29 67.8967L56.4167 67.2733Z" fill="white"/>
<path d="M61.9216 69.0037C61.5171 68.5928 61.2038 68.1035 61.0015 67.567C60.7992 67.0305 60.7124 66.4585 60.7465 65.8872C60.7581 65.3073 60.8889 64.7358 61.1309 64.207C61.3728 63.6782 61.7211 63.2032 62.1545 62.8106C63.0143 62.0162 64.1575 61.5879 65.336 61.6186C66.5145 61.6493 67.6332 62.1365 68.4491 62.9745C68.8591 63.3859 69.1774 63.877 69.3837 64.4164C69.59 64.9559 69.6797 65.5318 69.6471 66.1073C69.605 67.2362 69.129 68.3071 68.3154 69.1034C67.5019 69.8998 66.4115 70.362 65.265 70.3966C64.6375 70.425 64.0114 70.3146 63.4329 70.0735C62.8543 69.8325 62.3379 69.467 61.9216 69.0037ZM62.8784 68.1328C63.1672 68.4525 63.5211 68.7086 63.9171 68.8846C64.3131 69.0606 64.7423 69.1525 65.1767 69.1543C66.0134 69.1722 66.8232 68.8626 67.4282 68.2932C68.0333 67.7238 68.3843 66.9412 68.4041 66.1173C68.4093 65.2752 68.0846 64.4636 67.4976 63.8513C66.9106 63.239 66.1065 62.8731 65.2526 62.8298C64.8337 62.8097 64.4151 62.8758 64.0235 63.0238C63.6319 63.1718 63.276 63.3986 62.9783 63.6896C62.6676 63.9681 62.4188 64.3069 62.2473 64.6846C62.0758 65.0623 61.9853 65.4708 61.9817 65.8846C61.9676 66.2997 62.0399 66.7133 62.1941 67.1C62.3483 67.4866 62.5812 67.8381 62.8784 68.1328Z" fill="white"/>
<path d="M74.5289 61.7305L66.4146 57.5799L75.0887 55.0886L69.8091 52.3879L70.4045 51.2588L78.4644 55.3831L69.8049 57.8822L75.1244 60.6029L74.5289 61.7305Z" fill="white"/>
<path d="M4.05449 47.086C5.68939 47.086 7.01474 45.7808 7.01474 44.1708C7.01474 42.5607 5.68939 41.2555 4.05449 41.2555C2.41959 41.2555 1.09424 42.5607 1.09424 44.1708C1.09424 45.7808 2.41959 47.086 4.05449 47.086Z" fill="#FFCD34"/>
<path d="M76.3001 47.0615C77.935 47.0615 79.2603 45.7563 79.2603 44.1462C79.2603 42.5362 77.935 41.231 76.3001 41.231C74.6652 41.231 73.3398 42.5362 73.3398 44.1462C73.3398 45.7563 74.6652 47.0615 76.3001 47.0615Z" fill="#FFCD34"/>
<path d="M57.3544 47.2391C57.4658 47.0281 57.527 46.7951 57.5336 46.5574C57.5401 46.3198 57.4917 46.0838 57.392 45.8672L57.0997 45.1055C56.9884 44.9408 56.8906 44.7676 56.8071 44.5876C56.6889 44.256 56.5018 43.9524 56.2579 43.696C55.9059 43.3367 55.5358 42.993 55.1553 42.663C54.6268 42.1737 54.1817 41.6038 53.8371 40.9753C53.0418 39.6008 52.1694 38.2711 51.2239 36.9923C50.8886 36.5424 50.5274 36.1118 50.142 35.7026C49.6733 35.2498 49.0603 34.9699 48.4064 34.9102C47.4806 34.7821 46.5485 34.702 45.6141 34.6701C43.7163 34.6101 41.8169 34.565 39.9183 34.5772C37.8078 34.5901 35.6977 34.6627 33.5883 34.733C32.8858 34.7292 32.1861 34.8202 31.5086 35.0034C31.0276 35.1129 30.5842 35.3445 30.2223 35.6752C29.8636 36.0533 29.5251 36.4495 29.208 36.8621C28.2035 38.2124 27.2792 39.6189 26.4397 41.0744C26.0867 41.7128 25.6211 42.2841 25.0648 42.7618C24.8172 42.9627 24.5839 43.1806 24.3473 43.3944C23.9209 43.8237 23.5866 44.333 23.3642 44.892L23.0347 45.5909C22.9633 45.8765 22.8747 46.1595 22.8277 46.4492C22.8236 46.5987 22.8404 46.7481 22.8777 46.8931L22.922 47.0977C22.9409 47.1805 22.9515 47.2649 22.9536 47.3497C22.8934 48.2165 22.7875 49.0822 22.7736 49.9498C22.7556 51.0944 22.7939 52.2405 22.8367 53.3852C22.8653 54.1381 22.9438 54.8891 23.0005 55.6419C23.0042 55.9354 23.1053 56.2197 23.2885 56.4513C23.4716 56.6828 23.7267 56.8489 24.0148 56.9242C24.5947 57.1047 25.1998 57.1941 25.8079 57.1891C27.2104 57.1973 28.6118 57.2043 30.0123 57.2102C32.6022 57.2203 35.1921 57.2293 37.7822 57.2372C39.5186 57.2414 41.2548 57.2414 42.9908 57.2372C45.5108 57.2287 48.0308 57.2124 50.5511 57.2002C51.9129 57.1943 53.2747 57.1976 54.6365 57.1869C55.2688 57.1994 55.8974 57.0879 56.4855 56.8587C56.6792 56.7991 56.8531 56.6893 56.9888 56.5407C57.1246 56.3922 57.2173 56.2104 57.2571 56.0145C57.3233 55.6131 57.3616 55.2065 57.401 54.801C57.5396 53.2926 57.5964 51.7779 57.5712 50.2635C57.5665 49.2503 57.497 48.2384 57.3631 47.2339L57.3544 47.2391ZM56.8571 56.7267C56.7906 56.7637 56.7522 56.784 56.7132 56.8044C56.6741 56.8247 56.6313 56.8476 56.5892 56.8673C56.0162 57.1155 55.395 57.2377 54.7691 57.2254C54.0446 57.2325 53.32 57.2354 52.5955 57.2339C52.461 57.2339 52.4137 57.2709 52.4171 57.4096C52.4261 57.8351 52.4201 58.2605 52.4204 58.6871C52.4083 58.7705 52.4161 58.8556 52.4432 58.9355C52.4703 59.0154 52.516 59.088 52.5767 59.1474C52.6373 59.2069 52.7112 59.2516 52.7925 59.278C52.8737 59.3044 52.9601 59.3117 53.0448 59.2994C54.1019 59.2994 55.1592 59.2994 56.2165 59.2994C56.6516 59.2994 56.8552 59.0963 56.8552 58.6616C56.8552 58.1321 56.8552 57.6027 56.8552 57.0733L56.8571 56.7267ZM23.4915 56.733C23.4915 57.4433 23.4847 58.1273 23.4945 58.8114C23.496 58.8781 23.5111 58.9438 23.5389 59.0046C23.5667 59.0655 23.6065 59.1202 23.6562 59.1656C23.7058 59.211 23.7642 59.2462 23.8279 59.2689C23.8915 59.2917 23.9592 59.3017 24.0268 59.2983C25.1426 59.3012 26.2583 59.3012 27.374 59.2983C27.446 59.3 27.5175 59.2872 27.5842 59.2606C27.6509 59.234 27.7114 59.1942 27.7618 59.1437C27.8123 59.0931 27.8517 59.0329 27.8776 58.9668C27.9035 58.9007 27.9153 58.83 27.9123 58.7592C27.915 58.6153 27.9123 58.4714 27.9123 58.3275V57.2494C27.8372 57.2431 27.7809 57.2346 27.7245 57.2342C27.1809 57.2317 26.6373 57.2254 26.0941 57.2298C25.2023 57.2372 24.3191 57.2076 23.4915 56.733ZM54.0478 41.2206C54.1763 41.4137 54.2988 41.5868 54.4085 41.767C54.4297 41.8071 54.4635 41.8392 54.5049 41.8587C54.5463 41.8781 54.5931 41.8837 54.638 41.8746C55.2838 41.8236 55.9307 41.7822 56.5761 41.7296C56.7048 41.7217 56.8305 41.6881 56.9457 41.631C57.0609 41.5739 57.1631 41.4944 57.2463 41.3973C57.3294 41.3003 57.3918 41.1876 57.4295 41.0662C57.4673 40.9448 57.4797 40.8171 57.466 40.6908C57.4484 40.4914 57.4018 40.2942 57.3672 40.0963C57.3473 39.9348 57.2665 39.7867 57.141 39.6811C57.0154 39.5755 56.8541 39.5202 56.6891 39.5261C56.0467 39.5239 55.4044 39.5239 54.762 39.5261C54.6874 39.5197 54.6123 39.5303 54.5426 39.5573C54.4729 39.5842 54.4105 39.6267 54.3604 39.6815C54.3102 39.7362 54.2736 39.8016 54.2534 39.8726C54.2333 39.9436 54.2302 40.0183 54.2443 40.0907C54.271 40.3537 54.2984 40.6168 54.3251 40.8798C54.3491 41.1148 54.3123 41.1651 54.0478 41.2206ZM26.2861 41.2257C26.0355 41.1695 25.9938 41.1177 26.0122 40.8957C26.0351 40.6205 26.0712 40.3463 26.0874 40.0707C26.1012 39.9993 26.0978 39.9257 26.0773 39.8559C26.0568 39.786 26.0198 39.722 25.9694 39.6689C25.9189 39.6158 25.8565 39.5752 25.7871 39.5504C25.7177 39.5256 25.6433 39.5173 25.5701 39.5261C24.9329 39.5244 24.2957 39.5244 23.6583 39.5261C23.4899 39.5167 23.3241 39.5711 23.1951 39.6782C23.0662 39.7854 22.9838 39.9371 22.9648 40.1022C22.9355 40.2605 22.9141 40.42 22.8844 40.5783C22.8534 40.7063 22.8504 40.8394 22.8755 40.9687C22.9006 41.098 22.9534 41.2205 23.0302 41.3282C23.107 41.436 23.2062 41.5264 23.3211 41.5935C23.4361 41.6607 23.5642 41.703 23.697 41.7178C24.3762 41.7918 25.0595 41.8251 25.7418 41.8721C25.7666 41.8742 25.7915 41.8711 25.815 41.863C25.8386 41.8549 25.86 41.842 25.8781 41.8251C26.0175 41.6338 26.1463 41.4355 26.2861 41.2257Z" fill="white"/>
<path d="M57.3612 47.232C57.4951 48.2365 57.5646 49.2484 57.5693 50.2616C57.5945 51.776 57.5377 53.2906 57.3991 54.7991C57.3597 55.2061 57.3214 55.6112 57.2553 56.0126C57.2154 56.2085 57.1227 56.3903 56.9869 56.5388C56.8512 56.6874 56.6773 56.7972 56.4836 56.8568C55.8955 57.086 55.267 57.1975 54.6346 57.185C53.2728 57.1957 51.911 57.1924 50.5492 57.1983C48.0289 57.2094 45.5089 57.2257 42.989 57.2353C41.2526 57.2407 39.5164 57.2407 37.7803 57.2353C35.1905 57.2294 32.6005 57.2204 30.0104 57.2083C28.608 57.2029 27.2065 57.1958 25.806 57.1872C25.1979 57.1921 24.5928 57.1027 24.0129 56.9223C23.7252 56.8467 23.4705 56.6804 23.2877 56.4489C23.1049 56.2174 23.004 55.9333 23.0005 55.64C22.9438 54.8883 22.8653 54.1373 22.8367 53.3833C22.7939 52.2386 22.7556 51.0925 22.7736 49.9478C22.7875 49.0803 22.8934 48.2146 22.9536 47.3478C22.9515 47.263 22.9409 47.1786 22.922 47.0958C22.9946 47.2536 23.0982 47.3956 23.2268 47.5137C23.3554 47.6318 23.5066 47.7237 23.6715 47.784C24.5167 48.0799 25.3559 48.3988 26.2147 48.653C27.3488 48.9885 28.4984 49.2741 29.6442 49.572C29.6945 49.5847 29.747 49.5866 29.7981 49.5774C29.8492 49.5682 29.8977 49.5481 29.9402 49.5187C29.986 49.4732 29.9612 49.3226 29.9233 49.2383C29.616 48.5483 29.3049 47.8602 28.9819 47.1776C28.7591 46.7077 28.6085 46.1842 28.0532 45.9038C28.2411 45.7895 28.3913 45.6818 28.5555 45.6005C29.1483 45.3256 29.7998 45.1962 30.4545 45.2231C34.3724 45.2258 38.2903 45.2258 42.208 45.2231C44.7462 45.2231 47.2846 45.2231 49.8231 45.2231C50.1038 45.2188 50.3844 45.2332 50.6631 45.2664C51.2419 45.3207 51.792 45.5405 52.2458 45.8986C52.1282 45.9751 52.0209 46.0657 51.9261 46.1683C51.7665 46.386 51.6263 46.6168 51.5072 46.8583C51.1338 47.6386 50.7728 48.4247 50.4178 49.2131C50.3942 49.263 50.3812 49.3171 50.3798 49.372C50.3783 49.427 50.3883 49.4817 50.4091 49.5327C50.4418 49.586 50.6131 49.5912 50.7097 49.5672C52.4516 49.131 54.1951 48.6974 55.8882 48.0958C56.4325 47.906 57.0047 47.7418 57.3612 47.232ZM40.6339 56.5224V56.4754C41.7327 56.4754 42.8331 56.5035 43.9308 56.468C45.1806 56.4273 46.4278 56.32 47.6773 56.2601C47.983 56.2667 48.2843 56.1865 48.545 56.029C48.8057 55.8716 49.0149 55.6436 49.1476 55.3722C49.3768 54.9145 49.5755 54.4417 49.7716 53.9693C49.8843 53.7 49.8208 53.6267 49.524 53.6308C47.9113 53.6537 46.2986 53.6963 44.6858 53.697C41.1309 53.697 37.5756 53.6811 34.0203 53.6667C32.9388 53.6626 31.8572 53.6423 30.7757 53.6297C30.5334 53.6267 30.4639 53.6985 30.5503 53.9208C30.7298 54.3814 30.9162 54.8409 31.1341 55.2845C31.2596 55.5719 31.4674 55.8169 31.7322 55.9897C31.9969 56.1626 32.3071 56.2556 32.6247 56.2575C33.728 56.3089 34.8287 56.4214 35.9324 56.4547C37.4993 56.5043 39.067 56.5031 40.6339 56.5224ZM40.1748 47.0144V46.9834C39.3859 46.9834 38.597 46.9919 37.8081 46.9834C35.7795 46.9571 33.751 46.9212 31.7224 46.8957C31.6726 46.8926 31.6228 46.9 31.5761 46.9174C31.5295 46.9347 31.4872 46.9616 31.4519 46.9963C31.4184 47.0559 31.4714 47.1931 31.527 47.2667C31.9463 47.8265 32.3753 48.3788 32.8013 48.9338C33.0208 49.237 33.3086 49.486 33.6422 49.6613C33.9757 49.8367 34.346 49.9336 34.7239 49.9445C35.9556 49.9983 37.1878 50.0476 38.4205 50.0925C40.8364 50.1798 43.2474 50.0422 45.6599 49.9464C46.1048 49.9182 46.5341 49.7743 46.9042 49.5294C47.1711 49.3524 47.4018 49.1273 47.5841 48.8661C47.9797 48.3459 48.3854 47.8332 48.7761 47.3097C48.8303 47.2077 48.8689 47.0983 48.8907 46.9852C48.7869 46.9478 48.681 46.9161 48.5736 46.8905C48.4922 46.8824 48.4101 46.8824 48.3287 46.8905L40.1748 47.0144Z" fill="white"/>
<path d="M23.3643 44.892C23.5867 44.333 23.921 43.8237 24.3474 43.3944C24.584 43.1806 24.8173 42.9627 25.0649 42.7618C25.6212 42.2841 26.0868 41.7128 26.4398 41.0744C27.2793 39.6189 28.2036 38.2124 29.2081 36.8621C29.5252 36.4495 29.8637 36.0533 30.2224 35.6752C30.5843 35.3445 31.0277 35.1129 31.5087 35.0034C32.1862 34.8202 32.8859 34.7292 33.5884 34.733C35.6978 34.6627 37.8079 34.5901 39.9184 34.5772C41.817 34.565 43.7163 34.6101 45.6142 34.6701C46.5486 34.702 47.4807 34.7821 48.4065 34.9102C49.0604 34.9699 49.6733 35.2498 50.1421 35.7026C50.5275 36.1118 50.8887 36.5424 51.224 36.9923C52.1695 38.2711 53.0419 39.6008 53.8372 40.9753C54.1818 41.6039 54.6269 42.1737 55.1554 42.663C55.5359 42.993 55.9067 43.3367 56.258 43.696C56.5019 43.9524 56.689 44.256 56.8072 44.5876C56.8907 44.7676 56.9885 44.9408 57.0998 45.1055L56.8504 44.7533C56.8023 44.7788 56.758 44.8066 56.7106 44.8273C56.3556 45.0107 55.9852 45.1636 55.6036 45.2846C55.0156 45.4244 54.4078 45.4832 53.8082 45.5754C53.3319 45.6494 52.8552 45.7193 52.3807 45.7907C52.1696 45.6701 51.9476 45.5191 51.7045 45.4096C51.1154 45.1663 50.4791 45.0537 49.8408 45.08C45.9009 45.0822 41.9609 45.0822 38.0209 45.08C35.4832 45.08 32.9456 45.0752 30.4076 45.0855C30.0236 45.0923 29.6408 45.1319 29.2637 45.2039C28.7758 45.2858 28.3212 45.5016 27.9523 45.8266C27.8289 45.7875 27.7035 45.7547 27.5766 45.7285C26.9308 45.6268 26.2854 45.5217 25.6374 45.4363C24.9769 45.3995 24.3334 45.2163 23.755 44.9002C23.6678 44.8443 23.572 44.8014 23.4807 44.7522L23.3643 44.892ZM40.1588 40.9879V40.9967C41.8603 40.9967 43.5618 40.9967 45.2633 40.9967C46.3208 40.9967 47.3783 40.9904 48.4358 40.9893C49.8919 40.9879 51.348 40.9872 52.8041 40.9875C53.1046 40.9875 53.1798 40.8698 53.0389 40.6124C52.6613 39.9246 52.2943 39.2306 51.8905 38.558C51.3589 37.6363 50.6974 36.7934 49.9257 36.0544C49.5963 35.7148 49.1489 35.5102 48.6729 35.4814C47.9486 35.4514 47.2266 35.3748 46.5023 35.3508C42.8903 35.232 39.2775 35.195 35.6647 35.3049C34.3446 35.3449 33.0253 35.4207 31.7059 35.4836C31.316 35.4703 30.9357 35.6049 30.6435 35.8595C30.3329 36.1621 30.0027 36.4485 29.7198 36.7748C29.0049 37.6341 28.3803 38.5626 27.8557 39.5461C27.6499 39.9135 27.4579 40.2886 27.2719 40.666C27.1765 40.8606 27.261 40.9794 27.4767 40.9882C27.5116 40.9882 27.5469 40.9882 27.5819 40.9882H34.3341L40.1588 40.9879Z" fill="white"/>
<path d="M23.364 44.8922L23.482 44.7534C23.5733 44.8023 23.6698 44.8452 23.7562 44.9014C24.3347 45.2175 24.9782 45.4007 25.6387 45.4375C26.2867 45.5229 26.9321 45.628 27.5779 45.7297C27.7047 45.756 27.8301 45.7887 27.9535 45.8278C28.3225 45.5028 28.777 45.287 29.265 45.2051C29.6421 45.1331 30.0248 45.0935 30.4089 45.0868C32.9469 45.0764 35.4845 45.0812 38.0221 45.0812C41.9621 45.0812 45.9021 45.0812 49.8421 45.0812C50.4804 45.0549 51.1167 45.1675 51.7058 45.4108C51.947 45.5218 52.169 45.6698 52.382 45.7919C52.8553 45.7205 53.332 45.6495 53.8095 45.5766C54.4106 45.4845 55.0169 45.4256 55.6048 45.2858C55.9865 45.1649 56.3569 45.0119 56.7119 44.8285C56.7592 44.8082 56.8036 44.7804 56.8517 44.7545L57.1011 45.1067L57.3934 45.8685C57.5241 46.3187 57.511 46.7976 57.3558 47.2403L57.3626 47.2333C57.0061 47.7431 56.4339 47.9073 55.8896 48.1008C54.1964 48.7024 52.453 49.1367 50.711 49.5721C50.6145 49.5962 50.4432 49.591 50.4105 49.5377C50.3896 49.4867 50.3796 49.432 50.3811 49.377C50.3826 49.322 50.3955 49.2679 50.4191 49.2181C50.7741 48.4297 51.1351 47.6435 51.5086 46.8633C51.6277 46.6218 51.7679 46.391 51.9274 46.1733C52.0222 46.0707 52.1296 45.9801 52.2471 45.9036C51.7934 45.5455 51.2433 45.3257 50.6644 45.2714C50.3858 45.2382 50.1051 45.2238 49.8244 45.2281C47.2859 45.2251 44.7476 45.2251 42.2093 45.2281C38.2914 45.2281 34.3735 45.2281 30.4558 45.2281C29.8012 45.2011 29.1497 45.3306 28.5568 45.6054C28.3931 45.6883 28.242 45.7945 28.0546 45.9088C28.6098 46.1892 28.7605 46.7127 28.9832 47.1826C29.3063 47.8651 29.6174 48.5533 29.9246 49.2432C29.9622 49.3276 29.9874 49.4782 29.9416 49.5237C29.8991 49.5531 29.8506 49.5732 29.7995 49.5824C29.7484 49.5916 29.6958 49.5897 29.6455 49.5769C28.4997 49.2791 27.3502 48.9935 26.2161 48.658C25.3573 48.4038 24.5181 48.0853 23.6728 47.7889C23.5079 47.7287 23.3568 47.6368 23.2282 47.5187C23.0995 47.4006 22.9959 47.2586 22.9234 47.1008L22.879 46.8962C22.8681 46.6849 22.8701 46.4732 22.885 46.2621C22.9234 46.0377 22.9735 45.8154 23.0353 45.5962L23.364 44.8922Z" fill="#18365A"/>
<path d="M56.8568 56.7266V57.0736C56.8568 57.603 56.8568 58.1324 56.8568 58.6618C56.8568 59.0965 56.6521 59.2993 56.2182 59.2996C55.1611 59.2996 54.1038 59.2996 53.0464 59.2996C52.9618 59.3119 52.8754 59.3046 52.7941 59.2782C52.7128 59.2519 52.6389 59.2072 52.5783 59.1477C52.5177 59.0883 52.472 59.0157 52.4448 58.9357C52.4177 58.8558 52.4099 58.7708 52.4221 58.6873C52.4221 58.2615 52.4277 57.8364 52.4187 57.4099C52.4153 57.2704 52.4626 57.2338 52.5971 57.2341C53.3214 57.2356 54.0459 57.2328 54.7707 57.2256C55.3967 57.238 56.0178 57.1158 56.5908 56.8675C56.6329 56.8479 56.6739 56.8261 56.7148 56.8046C56.7558 56.7832 56.7903 56.7628 56.8568 56.7266Z" fill="white"/>
<path d="M23.4916 56.7328C24.3181 57.2074 25.2024 57.237 26.0939 57.2296C26.6371 57.2252 27.1807 57.2296 27.7242 57.2341C27.7814 57.2341 27.8369 57.243 27.9121 57.2492V58.3273C27.9121 58.4712 27.9143 58.6151 27.9121 58.7591C27.915 58.8299 27.9032 58.9005 27.8773 58.9666C27.8514 59.0328 27.812 59.093 27.7616 59.1435C27.7111 59.194 27.6506 59.2338 27.5839 59.2604C27.5172 59.287 27.4457 59.2998 27.3737 59.2981C26.258 59.3015 25.1423 59.3015 24.0266 59.2981C23.9589 59.3015 23.8913 59.2915 23.8276 59.2688C23.7639 59.246 23.7055 59.2109 23.6559 59.1655C23.6063 59.1201 23.5664 59.0653 23.5386 59.0045C23.5109 58.9436 23.4958 58.8779 23.4942 58.8112C23.4849 58.1272 23.4916 57.4431 23.4916 56.7328Z" fill="white"/>
<path d="M54.0479 41.2206C54.3108 41.1651 54.3484 41.1147 54.3251 40.8795C54.2984 40.6164 54.271 40.3534 54.2443 40.0903C54.2302 40.0179 54.2333 39.9433 54.2535 39.8723C54.2736 39.8012 54.3102 39.7358 54.3604 39.6811C54.4106 39.6264 54.473 39.5838 54.5426 39.5569C54.6123 39.5299 54.6874 39.5193 54.762 39.5258C55.4044 39.5243 56.0468 39.5243 56.6892 39.5258C56.8542 39.5198 57.0154 39.5752 57.141 39.6807C57.2666 39.7863 57.3473 39.9345 57.3672 40.0959C57.4018 40.2938 57.4484 40.491 57.466 40.6904C57.4801 40.8169 57.4679 40.9449 57.4302 41.0667C57.3926 41.1884 57.3302 41.3013 57.2469 41.3987C57.1637 41.496 57.0612 41.5757 56.9458 41.6329C56.8303 41.6901 56.7043 41.7236 56.5753 41.7315C55.9299 41.784 55.283 41.8254 54.6373 41.8765C54.5923 41.8855 54.5456 41.8799 54.5042 41.8605C54.4628 41.8411 54.4289 41.8089 54.4077 41.7688C54.2988 41.5868 54.1763 41.4137 54.0479 41.2206Z" fill="white"/>
<path d="M26.2862 41.2258C26.145 41.4363 26.0176 41.6327 25.8798 41.8247C25.8617 41.8416 25.8402 41.8545 25.8167 41.8626C25.7932 41.8707 25.7682 41.8738 25.7434 41.8717C25.0612 41.8247 24.3779 41.7907 23.6987 41.7174C23.5658 41.7027 23.4377 41.6603 23.3228 41.5932C23.2078 41.526 23.1086 41.4356 23.0318 41.3279C22.955 41.2202 22.9023 41.0976 22.8772 40.9683C22.8521 40.8391 22.8551 40.706 22.8861 40.578C22.9158 40.4196 22.9372 40.2602 22.9665 40.1018C22.9854 39.9367 23.0678 39.785 23.1968 39.6779C23.3258 39.5707 23.4915 39.5163 23.66 39.5258C24.2971 39.5258 24.9343 39.5258 25.5717 39.5258C25.645 39.5169 25.7194 39.5252 25.7887 39.55C25.8581 39.5748 25.9206 39.6154 25.971 39.6685C26.0214 39.7216 26.0584 39.7857 26.0789 39.8555C26.0994 39.9253 26.1029 39.999 26.089 40.0704C26.0714 40.346 26.0353 40.6201 26.0139 40.8954C25.994 41.1177 26.0357 41.1695 26.2862 41.2258Z" fill="white"/>
<path d="M40.6337 56.5224C39.0667 56.5032 37.4991 56.5043 35.9333 56.4569C34.8296 56.4236 33.7289 56.3112 32.6256 56.2598C32.308 56.2579 31.9978 56.1648 31.733 55.992C31.4683 55.8192 31.2604 55.5741 31.1349 55.2868C30.917 54.8428 30.7307 54.3837 30.5511 53.9231C30.464 53.7011 30.5335 53.629 30.7765 53.6319C31.8581 53.6438 32.9396 53.6641 34.0212 53.6689C37.5765 53.6833 41.1318 53.7007 44.6867 53.6993C46.2994 53.6993 47.9122 53.656 49.5249 53.633C49.8217 53.629 49.8844 53.7022 49.7725 53.9715C49.5764 54.444 49.3777 54.9168 49.1485 55.3744C49.0158 55.6458 48.8066 55.8738 48.5459 56.0313C48.2851 56.1887 47.9839 56.2689 47.6781 56.2623C46.4287 56.3241 45.1815 56.4296 43.9316 56.4703C42.8339 56.5073 41.7336 56.4777 40.6348 56.4777L40.6337 56.5224Z" fill="#18365A"/>
<path d="M40.175 47.0133L48.3288 46.8909C48.4102 46.8827 48.4923 46.8827 48.5737 46.8909C48.6812 46.9165 48.787 46.9481 48.8908 46.9856C48.8691 47.0987 48.8305 47.208 48.7762 47.31C48.3855 47.8335 47.9798 48.3459 47.5842 48.8665C47.402 49.1277 47.1713 49.3527 46.9043 49.5298C46.5343 49.7747 46.105 49.9185 45.6601 49.9467C43.2476 50.0426 40.8365 50.1802 38.4206 50.0929C37.1882 50.0482 35.956 49.9989 34.7241 49.9449C34.3457 49.9335 33.9751 49.836 33.6414 49.6598C33.3078 49.4837 33.0201 49.2338 32.801 48.9297C32.375 48.3748 31.946 47.8224 31.5268 47.2627C31.4715 47.1887 31.4186 47.0518 31.4516 46.9922C31.4869 46.9576 31.5293 46.9307 31.5759 46.9133C31.6225 46.896 31.6724 46.8886 31.7221 46.8916C33.7507 46.9171 35.7793 46.953 37.8079 46.9793C38.5968 46.9897 39.3857 46.9793 40.1746 46.9793L40.175 47.0133ZM47.632 47.6175L47.6196 47.5564H32.7127C32.7176 47.5731 32.7266 47.5883 32.739 47.6006C32.7515 47.6129 32.7668 47.6219 32.7837 47.6267C32.8503 47.6477 32.9181 47.665 32.9866 47.6785C33.8614 47.8323 34.7476 47.9142 35.6362 47.9234C38.2313 47.9289 40.8264 47.9319 43.4215 47.9327C44.5789 47.9613 45.7368 47.9011 46.8848 47.7525C47.1349 47.7144 47.3829 47.663 47.632 47.6175ZM33.2293 48.842L33.2221 48.889C33.2829 48.9136 33.3458 48.9329 33.41 48.9467C34.0174 49.0237 34.6238 49.1317 35.2338 49.1639C36.0979 49.212 36.9619 49.2183 37.8259 49.2201C39.8545 49.2246 41.8809 49.2172 43.9087 49.2127C44.8967 49.2188 45.883 49.1334 46.8547 48.9578C46.94 48.9416 47.0234 48.9157 47.1075 48.8946L47.0985 48.842H33.2293Z" fill="#18365A"/>
<path d="M26.6656 55.3248C26.8108 55.3063 26.9569 55.2962 27.1033 55.2944C27.1804 55.3044 27.2588 55.2908 27.3277 55.2553C27.3967 55.2199 27.4529 55.1645 27.4887 55.0965C27.5245 55.0285 27.5382 54.9513 27.528 54.8754C27.5177 54.7995 27.4839 54.7285 27.4312 54.6722C27.1899 54.3062 26.9159 53.9622 26.6127 53.644C25.7951 52.8807 24.7947 52.3335 23.7046 52.0532C23.5213 51.9999 23.4676 52.0532 23.495 52.2619C23.5961 53.0262 23.7016 53.7898 23.7997 54.5556C23.8032 54.6426 23.8358 54.726 23.8924 54.7929C23.949 54.8598 24.0264 54.9064 24.1126 54.9256C24.9447 55.1571 25.8016 55.2911 26.6656 55.3248Z" fill="white"/>
<path d="M53.6452 55.324C54.5083 55.2927 55.3646 55.1609 56.1963 54.9315C56.2939 54.9111 56.3816 54.8587 56.4452 54.783C56.5088 54.7072 56.5445 54.6125 56.5464 54.5142C56.6392 53.7665 56.7414 53.0203 56.8417 52.2737C56.8733 52.0384 56.8237 51.9996 56.5844 52.0677C55.8535 52.2723 55.1592 52.5871 54.5261 53.0007C53.8446 53.4305 53.2799 54.0176 52.881 54.711C52.8386 54.7654 52.8129 54.8306 52.807 54.899C52.8011 54.9673 52.8152 55.0359 52.8476 55.0966C52.8801 55.1573 52.9296 55.2075 52.9902 55.2413C53.0508 55.2751 53.1199 55.2911 53.1895 55.2874C53.3619 55.3052 53.537 55.3155 53.6452 55.324Z" fill="white"/>
<path d="M40.1584 40.9879H34.3356H27.5834C27.5484 40.9879 27.5131 40.9879 27.4782 40.9879C27.2626 40.979 27.1777 40.8602 27.2734 40.6656C27.4613 40.2883 27.6514 39.9131 27.8572 39.5458C28.3813 38.5622 29.0054 37.6335 29.7198 36.774C30.0027 36.4477 30.3329 36.1614 30.6436 35.8587C30.9358 35.6042 31.3161 35.4698 31.7059 35.4832C33.0253 35.4203 34.3446 35.3445 35.6647 35.3045C39.2775 35.1935 42.8903 35.2305 46.5023 35.3504C47.2266 35.3745 47.9486 35.451 48.6729 35.481C49.1489 35.5098 49.5963 35.7145 49.9257 36.0541C50.6974 36.793 51.3589 37.6359 51.8905 38.5576C52.2943 39.2302 52.6613 39.9242 53.0389 40.612C53.1801 40.8709 53.1035 40.9871 52.8041 40.9871C51.348 40.9886 49.8919 40.9892 48.4359 40.989C47.3784 40.989 46.3208 40.9956 45.2633 40.9964C43.5618 40.9978 41.8603 40.9978 40.1588 40.9964L40.1584 40.9879Z" fill="#18365A"/>
<path d="M47.6316 47.6176C47.3825 47.6631 47.1346 47.7145 46.8844 47.7526C45.7365 47.9012 44.5786 47.9614 43.4211 47.9328C40.826 47.9286 38.2309 47.9255 35.6358 47.9235C34.7473 47.9143 33.861 47.8324 32.9863 47.6786C32.9177 47.665 32.85 47.6478 32.7834 47.6268C32.7665 47.622 32.7511 47.613 32.7387 47.6007C32.7263 47.5884 32.7172 47.5732 32.7124 47.5565H47.6192L47.6316 47.6176Z" fill="white"/>
<path d="M33.2292 48.842H47.1015L47.1105 48.8946C47.0263 48.9157 46.9429 48.9416 46.8577 48.9578C45.8859 49.1335 44.8996 49.2188 43.9117 49.2127C41.8831 49.2172 39.8545 49.2246 37.8289 49.2202C36.9649 49.2202 36.0982 49.212 35.2368 49.1639C34.6267 49.1302 34.0204 49.0237 33.4129 48.9467C33.3487 48.9329 33.2859 48.9136 33.2251 48.889L33.2292 48.842Z" fill="white"/>
<path d="M26.6654 55.3249C25.8015 55.2901 24.9448 55.155 24.1131 54.9224C24.0269 54.9032 23.9495 54.8566 23.8929 54.7897C23.8363 54.7228 23.8037 54.6394 23.8002 54.5524C23.7021 53.7881 23.5966 53.0245 23.4955 52.2587C23.4681 52.0511 23.5218 51.9967 23.7051 52.05C24.7953 52.3313 25.7954 52.8798 26.6124 53.6442C26.9156 53.9619 27.1896 54.3056 27.431 54.6712C27.4836 54.7275 27.5174 54.7985 27.5277 54.8744C27.538 54.9503 27.5243 55.0275 27.4884 55.0955C27.4526 55.1635 27.3964 55.219 27.3275 55.2544C27.2585 55.2898 27.1801 55.3034 27.103 55.2935C26.9567 55.2956 26.8105 55.3061 26.6654 55.3249ZM25.8427 53.8033C25.8426 53.6467 25.7955 53.4936 25.7072 53.3633C25.619 53.2331 25.4936 53.1314 25.3469 53.0712C25.2001 53.0109 25.0385 52.9948 24.8824 53.0248C24.7264 53.0548 24.5828 53.1296 24.4699 53.2398C24.3569 53.35 24.2795 53.4906 24.2475 53.644C24.2155 53.7974 24.2304 53.9567 24.2901 54.1018C24.3498 54.2469 24.4518 54.3714 24.5832 54.4595C24.7146 54.5477 24.8696 54.5956 25.0286 54.5972C25.2433 54.5977 25.4495 54.5144 25.602 54.3657C25.7545 54.2169 25.8411 54.0147 25.8427 53.8033Z" fill="#18365A"/>
<path d="M53.6452 55.3241C53.5385 55.3155 53.3634 55.3052 53.1895 55.2871C53.1199 55.2908 53.0508 55.2748 52.9902 55.241C52.9296 55.2071 52.8801 55.1569 52.8476 55.0962C52.8152 55.0355 52.8011 54.967 52.807 54.8986C52.8129 54.8303 52.8386 54.765 52.881 54.7107C53.2799 54.0172 53.8446 53.4301 54.5261 53.0003C55.1592 52.5867 55.8535 52.272 56.5844 52.0673C56.8237 51.9992 56.8733 52.0381 56.8417 52.2734C56.7414 53.0199 56.6392 53.7662 56.5464 54.5138C56.5445 54.6121 56.5088 54.7068 56.4452 54.7826C56.3816 54.8584 56.2939 54.9107 56.1963 54.9312C55.3646 55.1607 54.5083 55.2926 53.6452 55.3241ZM56.1016 53.8072C56.1021 53.5955 56.0174 53.3922 55.8659 53.2419C55.7144 53.0916 55.5086 53.0066 55.2936 53.0055C55.1859 53.0037 55.079 53.023 54.9791 53.0624C54.8791 53.1018 54.7882 53.1605 54.7115 53.235C54.6349 53.3094 54.5741 53.3982 54.5328 53.4961C54.4915 53.594 54.4704 53.699 54.4708 53.8051C54.4713 53.9111 54.4932 54.016 54.5353 54.1135C54.5774 54.2111 54.6389 54.2994 54.7161 54.3733C54.7933 54.4471 54.8847 54.5051 54.985 54.5437C55.0853 54.5823 55.1923 54.6009 55.3 54.5982C55.5122 54.5961 55.715 54.5118 55.8647 54.3637C56.0144 54.2156 56.099 54.0155 56.1001 53.8065L56.1016 53.8072Z" fill="#18365A"/>
<path d="M25.8429 53.8032C25.8431 53.9082 25.8221 54.0121 25.7811 54.109C25.7402 54.2059 25.6801 54.2939 25.6044 54.3677C25.5286 54.4416 25.4388 54.4999 25.34 54.5393C25.2412 54.5787 25.1354 54.5983 25.0289 54.5972C24.8691 54.5961 24.7133 54.5484 24.581 54.4601C24.4488 54.3719 24.3461 54.247 24.2858 54.1013C24.2255 53.9556 24.2105 53.7956 24.2425 53.6415C24.2745 53.4874 24.3521 53.346 24.4656 53.2353C24.5792 53.1246 24.7234 53.0495 24.8802 53.0195C25.037 52.9895 25.1994 53.0059 25.3467 53.0667C25.4941 53.1274 25.6199 53.2298 25.7082 53.3609C25.7965 53.492 25.8434 53.6459 25.8429 53.8032Z" fill="#FFCD34"/>
<path d="M56.1 53.8066C56.0987 54.0157 56.0138 54.2159 55.8638 54.3639C55.7138 54.5119 55.5107 54.5958 55.2984 54.5976C55.1907 54.6002 55.0837 54.5817 54.9834 54.5431C54.8832 54.5045 54.7917 54.4465 54.7145 54.3726C54.6373 54.2988 54.5758 54.2105 54.5337 54.1129C54.4916 54.0153 54.4697 53.9105 54.4692 53.8044C54.4688 53.6984 54.4899 53.5934 54.5312 53.4955C54.5726 53.3976 54.6333 53.3088 54.7099 53.2343C54.7866 53.1599 54.8775 53.1012 54.9775 53.0618C55.0774 53.0224 55.1843 53.0031 55.292 53.0049C55.507 53.006 55.7128 53.091 55.8643 53.2412C56.0158 53.3915 56.1005 53.5948 56.1 53.8066Z" fill="#FFCD34"/>
<path d="M46.0334 35.6957C47.9415 28.4489 43.523 21.0508 36.1643 19.1718C28.8057 17.2927 21.2936 21.6441 19.3855 28.8909C17.4775 36.1377 21.896 43.5357 29.2546 45.4148C36.6132 47.2939 44.1254 42.9425 46.0334 35.6957Z" fill="#FFCD34"/>
<path d="M60.2039 54.9585L49.3389 44.2596C48.9813 43.9084 48.5218 43.6752 48.0238 43.5923C47.5258 43.5093 47.014 43.5806 46.559 43.7965L45.104 42.3407C47.7243 39.2021 49.0179 35.1909 48.7167 31.1385C48.4154 27.0861 46.5424 23.3032 43.4859 20.574C40.4293 17.8447 36.4236 16.3782 32.2989 16.4786C28.1743 16.5789 24.247 18.2384 21.331 21.113C18.415 23.9876 16.734 27.857 16.6363 31.9191C16.5387 35.9812 18.0318 39.9246 20.8064 42.9319C23.5809 45.9392 27.424 47.7799 31.5393 48.0724C35.6545 48.3649 39.7262 47.0868 42.9105 44.5031L44.3643 45.9555C44.1446 46.4042 44.0718 46.9091 44.156 47.4003C44.2402 47.8915 44.4772 48.3448 44.8343 48.6977L55.6989 59.395C56.1587 59.8476 56.7822 60.1018 57.4322 60.1018C58.0823 60.1018 58.7058 59.8476 59.1656 59.395L60.2058 58.371C60.6649 57.9181 60.9226 57.3043 60.9222 56.6644C60.9219 56.0244 60.6635 55.4109 60.2039 54.9585ZM32.7003 45.7095C30.0032 45.7095 27.3667 44.9219 25.1241 43.4462C22.8816 41.9706 21.1337 39.8732 20.1016 37.4192C19.0695 34.9653 18.7994 32.2651 19.3256 29.66C19.8518 27.0549 21.1505 24.662 23.0577 22.7839C24.9648 20.9057 27.3946 19.6267 30.0399 19.1085C32.6851 18.5903 35.427 18.8563 37.9188 19.8727C40.4106 20.8892 42.5403 22.6105 44.0387 24.8189C45.5372 27.0274 46.3369 29.6239 46.3369 32.28C46.3365 35.8415 44.8996 39.2569 42.3423 41.7751C39.785 44.2933 36.3167 45.708 32.7003 45.708V45.7095ZM58.8316 55.5804C58.81 55.6017 58.7843 55.6187 58.7561 55.6303C58.7278 55.6418 58.6975 55.6478 58.6669 55.6478C58.6363 55.6478 58.6059 55.6418 58.5777 55.6303C58.5494 55.6187 58.5237 55.6017 58.5021 55.5804L48.3159 45.5493C48.2722 45.5063 48.2476 45.4479 48.2476 45.387C48.2475 45.3262 48.2721 45.2678 48.3158 45.2247C48.3594 45.1816 48.4187 45.1574 48.4805 45.1574C48.5424 45.1573 48.6017 45.1815 48.6454 45.2245L58.8316 55.2559C58.8748 55.2989 58.8991 55.3569 58.8991 55.4174C58.8991 55.4779 58.8748 55.536 58.8316 55.5789V55.5804Z" fill="#18365A"/>
<path d="M57.4297 60.3063C57.0805 60.307 56.7345 60.2398 56.4117 60.1085C56.0889 59.9772 55.7957 59.7844 55.5488 59.5412L44.6841 48.8438C44.3156 48.4777 44.0649 48.0127 43.9633 47.507C43.8617 47.0013 43.9138 46.4774 44.1131 46.0007L42.8929 44.7798C39.6456 47.3514 35.521 48.5995 31.3677 48.2673C27.2144 47.935 23.3483 46.0477 20.565 42.9937C17.7817 39.9397 16.2929 35.9513 16.4048 31.8491C16.5167 27.7469 18.221 23.843 21.1668 20.9406C24.1126 18.0382 28.076 16.3581 32.2414 16.246C36.4069 16.1339 40.4575 17.5983 43.5599 20.338C46.6622 23.0776 48.5804 26.8841 48.9196 30.9741C49.2589 35.0642 47.9934 39.1267 45.3836 42.3259L46.6053 43.5467C47.0887 43.3509 47.62 43.3 48.1326 43.4002C48.6453 43.5004 49.1166 43.7474 49.4874 44.1102L60.3524 54.809C60.8511 55.3004 61.1312 55.9667 61.1312 56.6614C61.1312 57.3561 60.8511 58.0224 60.3524 58.5138L59.3122 59.5378C59.0652 59.7816 58.7717 59.975 58.4487 60.1068C58.1257 60.2387 57.7794 60.3065 57.4297 60.3063ZM42.9234 44.2234L44.6139 45.9137L44.5504 46.0443C44.3509 46.4549 44.285 46.9161 44.3617 47.3649C44.4385 47.8137 44.654 48.2283 44.979 48.5519L55.844 59.2489C56.2651 59.6617 56.835 59.8934 57.4291 59.8934C58.0233 59.8934 58.5932 59.6617 59.0143 59.2489L60.0541 58.2252C60.4741 57.8113 60.71 57.2501 60.71 56.6649C60.71 56.0798 60.4741 55.5186 60.0541 55.1046L49.1891 44.4058C48.8612 44.0856 48.4408 43.8731 47.9855 43.7974C47.5302 43.7217 47.0623 43.7865 46.6458 43.9829L46.5113 44.0462L44.8186 42.3529L44.9392 42.209C47.5257 39.1113 48.8027 35.1523 48.5056 31.1525C48.2086 27.1527 46.3601 23.4188 43.3434 20.7248C40.3268 18.0307 36.3732 16.5831 32.3021 16.6818C28.231 16.7806 24.3545 18.4182 21.4762 21.2553C18.5979 24.0923 16.9384 27.9113 16.8416 31.9206C16.7449 35.93 18.2183 39.8222 20.9565 42.7907C23.6947 45.7593 27.4878 47.5764 31.5495 47.8655C35.6113 48.1546 39.6302 46.8935 42.7735 44.3436L42.9234 44.2234ZM58.6672 55.8531C58.6091 55.8532 58.5516 55.842 58.498 55.8201C58.4444 55.7983 58.3956 55.7662 58.3546 55.7258L48.1677 45.694C48.0845 45.6122 48.0378 45.5013 48.0376 45.3856C48.0375 45.2699 48.0841 45.1589 48.1671 45.0771C48.2501 44.9952 48.3627 44.9491 48.4802 44.949C48.5977 44.9489 48.7104 44.9948 48.7935 45.0765L58.9797 55.1087C59.0415 55.1697 59.0837 55.2474 59.1007 55.3319C59.1177 55.4165 59.109 55.5041 59.0755 55.5837C59.042 55.6634 58.9853 55.7314 58.9126 55.7794C58.8398 55.8273 58.7543 55.853 58.6668 55.8531H58.6672ZM48.4986 45.3691L48.4656 45.4017L58.6514 55.4331H58.6844C58.6888 55.4288 58.6912 55.423 58.6912 55.4169C58.6912 55.4108 58.6888 55.4049 58.6844 55.4006L48.4986 45.3691ZM32.7015 45.9145C29.9628 45.915 27.2855 45.1157 25.0081 43.6176C22.7308 42.1196 20.9556 39.9901 19.9073 37.4985C18.8589 35.0068 18.5843 32.265 19.1183 29.6197C19.6523 26.9744 20.9709 24.5445 22.9072 22.6372C24.8436 20.7299 27.3108 19.431 29.9968 18.9047C32.6829 18.3784 35.467 18.6483 37.9973 19.6804C40.5275 20.7124 42.6901 22.4602 44.2116 24.7028C45.7332 26.9453 46.5452 29.5818 46.5452 32.2789C46.5409 35.8938 45.0809 39.3594 42.4855 41.9157C39.89 44.4719 36.371 45.91 32.7004 45.9145H32.7015ZM32.7015 19.0554C30.0458 19.0552 27.4497 19.8305 25.2415 21.2833C23.0333 22.7362 21.3122 24.8012 20.2957 27.2174C19.2793 29.6336 19.0132 32.2923 19.5311 34.8574C20.0491 37.4225 21.3277 39.7787 23.2055 41.6281C25.0832 43.4775 27.4756 44.737 30.0802 45.2474C32.6848 45.7577 35.3846 45.496 37.8382 44.4953C40.2917 43.4945 42.3888 41.7997 43.8643 39.6252C45.3398 37.4507 46.1273 34.8942 46.1274 32.2789C46.1233 28.7731 44.7074 25.4121 42.1902 22.9332C39.673 20.4542 36.2602 19.0598 32.7004 19.0558L32.7015 19.0554Z" fill="white"/>
<path d="M24.4526 28.196C24.682 28.103 24.9215 27.9959 25.1709 27.8745C25.4204 27.7532 25.6637 27.6207 25.9008 27.4772C26.1382 27.3331 26.3659 27.1812 26.5838 27.0214C26.7936 26.8683 26.99 26.6981 27.171 26.5127H28.4058V34.6148H26.6368V28.7828C26.3843 28.9464 26.1184 29.089 25.8418 29.209C25.5483 29.3377 25.2633 29.4487 24.9868 29.5419L24.4526 28.196Z" fill="#18365A"/>
<path d="M30.6257 34.6153C30.6786 34.0168 30.7779 33.4231 30.9229 32.8395C31.0726 32.2256 31.2569 31.6204 31.4751 31.0267C31.6841 30.4536 31.9279 29.8933 32.205 29.3489C32.4424 28.8749 32.7163 28.4195 33.0244 27.9867H29.4521V26.501H35.2089V27.7636C34.8967 28.1166 34.6171 28.4962 34.3734 28.8979C34.0458 29.4249 33.7561 29.9738 33.5063 30.5406C33.223 31.1805 32.9845 31.8389 32.7926 32.511C32.5925 33.1974 32.4666 33.9028 32.4169 34.6153H30.6257Z" fill="#18365A"/>
<path d="M39.2455 32.23C39.2494 32.0195 39.1962 31.8117 39.0915 31.6281C38.9631 31.4315 38.7765 31.2785 38.5569 31.1897C38.2313 31.0529 37.8876 30.9622 37.5362 30.9204C37.0007 30.8514 36.4609 30.8202 35.9208 30.8268C36.0077 30.1019 36.0789 29.3654 36.1342 28.6174C36.1896 27.8693 36.2331 27.1678 36.2649 26.5127H40.717V27.9744H37.7492C37.7329 28.2548 37.715 28.5261 37.6955 28.7883C37.6759 29.0505 37.6543 29.2784 37.6305 29.472C38.786 29.5504 39.6387 29.8175 40.1884 30.2733C40.4642 30.5069 40.6821 30.7995 40.8253 31.1288C40.9686 31.4581 41.0334 31.8153 41.0149 32.1731C41.0182 32.5296 40.9495 32.8832 40.8128 33.2134C40.6787 33.5324 40.4714 33.8166 40.2072 34.0436C39.9106 34.2929 39.5655 34.4798 39.1929 34.593C38.7298 34.7337 38.2469 34.8009 37.7624 34.792C37.5381 34.7913 37.3141 34.7777 37.0914 34.7513C36.858 34.7239 36.6326 34.6888 36.4152 34.6459C36.1977 34.6033 36.002 34.5582 35.8277 34.5112C35.6889 34.4771 35.5537 34.4303 35.4238 34.3714L35.7446 32.933C35.9987 33.0371 36.2607 33.1212 36.5283 33.1845C36.9098 33.2726 37.301 33.3137 37.6929 33.307C38.1149 33.3436 38.5362 33.2295 38.88 32.9855C38.9938 32.894 39.0856 32.7788 39.1488 32.6482C39.212 32.5175 39.245 32.3747 39.2455 32.23Z" fill="#18365A"/>
<path d="M25.7598 35.7798C26.1385 35.7573 26.5157 35.8424 26.8466 36.0251C26.9755 36.1146 27.0783 36.2358 27.1448 36.3767C27.2112 36.5176 27.239 36.6731 27.2253 36.8279C27.2387 36.9843 27.2104 37.1415 27.1432 37.2839C27.076 37.4262 26.9722 37.5488 26.8421 37.6396C26.5088 37.8248 26.1283 37.9114 25.7463 37.8889H25.5209V38.9322H24.8071V35.8615C24.9701 35.8307 25.1348 35.8097 25.3004 35.7987C25.4766 35.7857 25.6291 35.7798 25.7598 35.7798ZM25.8056 36.378C25.7534 36.378 25.7027 36.378 25.6524 36.3825C25.602 36.3869 25.5588 36.3884 25.5224 36.3913V37.2918H25.7478C25.9389 37.3025 26.1298 37.2684 26.3049 37.1923C26.3692 37.1551 26.4211 37.1003 26.4544 37.0347C26.4878 36.969 26.5011 36.8953 26.4927 36.8223C26.4955 36.7475 26.4789 36.6731 26.4447 36.6063C26.4124 36.5493 26.365 36.5019 26.3075 36.4694C26.2404 36.4325 26.1669 36.408 26.0908 36.3973C25.9964 36.3836 25.9011 36.3772 25.8056 36.378Z" fill="#18365A"/>
<path d="M30.6729 37.3716C30.6775 37.6113 30.6363 37.8498 30.5516 38.0745C30.4788 38.2648 30.366 38.4377 30.2206 38.5821C30.0788 38.7199 29.908 38.8252 29.7202 38.8907C29.5203 38.9606 29.3095 38.9956 29.0974 38.9939C28.8888 38.9952 28.6817 38.9603 28.4854 38.8907C28.2976 38.8242 28.1263 38.719 27.9832 38.5821C27.8351 38.4385 27.7198 38.2655 27.6451 38.0745C27.5591 37.85 27.5173 37.6115 27.5218 37.3716C27.517 37.1313 27.5604 36.8924 27.6496 36.6687C27.7276 36.4771 27.845 36.3034 27.9944 36.1585C28.1377 36.0213 28.3089 35.9155 28.4967 35.8481C28.6892 35.7788 28.8928 35.7437 29.0978 35.7445C29.3063 35.7435 29.5135 35.7785 29.7097 35.8481C29.8978 35.9149 30.0691 36.0208 30.212 36.1585C30.3597 36.3034 30.4748 36.4772 30.5501 36.6687C30.6359 36.8932 30.6776 37.1318 30.6729 37.3716ZM28.257 37.3716C28.2551 37.5116 28.2743 37.6512 28.3141 37.7856C28.348 37.9006 28.4038 38.0082 28.4787 38.1027C28.5491 38.19 28.6391 38.26 28.7416 38.3072C28.8539 38.3546 28.9747 38.379 29.0968 38.379C29.2189 38.379 29.3398 38.3546 29.452 38.3072C29.5547 38.2601 29.6447 38.1901 29.715 38.1027C29.7898 38.0082 29.8458 37.9006 29.8799 37.7856C29.9192 37.6511 29.9383 37.5116 29.9366 37.3716C29.9382 37.231 29.9191 37.091 29.8799 36.9558C29.8461 36.84 29.7901 36.7316 29.715 36.6365C29.6448 36.549 29.5547 36.4789 29.452 36.4319C29.3409 36.3826 29.22 36.358 29.0981 36.3598C28.9751 36.3575 28.8532 36.3828 28.7416 36.4338C28.6392 36.4822 28.5493 36.5529 28.4787 36.6406C28.4036 36.7355 28.3477 36.8438 28.3141 36.9595C28.2746 37.0933 28.2554 37.2322 28.257 37.3716Z" fill="#18365A"/>
<path d="M31.1748 35.8162H31.8886V38.9323H31.1748V35.8162Z" fill="#18365A"/>
<path d="M34.6501 38.9323C34.4463 38.5757 34.2256 38.2235 33.9882 37.8757C33.755 37.5334 33.5018 37.2045 33.2301 36.8909V38.9323H32.5269V35.8162H33.1065C33.2067 35.9148 33.3179 36.0362 33.4401 36.1802C33.5623 36.3242 33.6864 36.4779 33.8124 36.6412C33.9376 36.8047 34.0628 36.9741 34.1881 37.1495C34.3133 37.3249 34.4305 37.4934 34.5397 37.6552V35.8162H35.2474V38.9323H34.6501Z" fill="#18365A"/>
<path d="M38.2351 35.8162V36.414H37.2805V38.9323H36.5686V36.414H35.6133V35.8162H38.2351Z" fill="#18365A"/>
<path d="M39.4629 38.3973C39.5466 38.3991 39.6303 38.3906 39.712 38.3722C39.7684 38.3598 39.822 38.3369 39.8697 38.3048C39.9067 38.2798 39.9352 38.2445 39.9516 38.2035C39.9673 38.1618 39.9751 38.1177 39.9745 38.0732C39.974 38.0222 39.9603 37.9721 39.9347 37.9276C39.9092 37.8832 39.8726 37.8458 39.8284 37.8191C39.6714 37.7251 39.5025 37.6519 39.3261 37.6012C39.2225 37.5642 39.1192 37.5242 39.0155 37.4772C38.9145 37.4325 38.8208 37.3736 38.7371 37.3022C38.6539 37.2304 38.5857 37.1433 38.5361 37.0459C38.4812 36.9315 38.4546 36.806 38.4584 36.6796C38.4562 36.5455 38.4843 36.4125 38.5406 36.2904C38.5946 36.1757 38.6742 36.0745 38.7735 35.9944C38.8821 35.9103 39.0061 35.8475 39.1387 35.8094C39.2959 35.7642 39.4591 35.7422 39.6229 35.7443C39.8093 35.741 39.9952 35.7637 40.1752 35.8117C40.3079 35.8479 40.4366 35.8975 40.5591 35.9597L40.3536 36.5146C40.2588 36.4671 40.1603 36.4273 40.0591 36.3955C39.9323 36.3587 39.8005 36.3414 39.6684 36.344C39.5418 36.3346 39.4149 36.3588 39.301 36.414C39.2644 36.4362 39.2347 36.4677 39.2148 36.5052C39.195 36.5427 39.1858 36.5848 39.1883 36.6271C39.1865 36.6782 39.2008 36.7285 39.2292 36.7713C39.2606 36.8136 39.3 36.8494 39.3453 36.8768C39.4003 36.9106 39.4586 36.9391 39.5192 36.9619C39.5842 36.9878 39.6567 37.014 39.736 37.041C39.9005 37.101 40.0435 37.1602 40.165 37.2186C40.2768 37.2702 40.3793 37.3393 40.4685 37.4232C40.5487 37.5002 40.6104 37.5939 40.6492 37.6974C40.6915 37.8204 40.7115 37.9497 40.7082 38.0795C40.7148 38.2085 40.6901 38.3372 40.6362 38.4549C40.5823 38.5726 40.5008 38.676 40.3983 38.7565C40.1217 38.9364 39.7923 39.021 39.4618 38.997C39.335 38.998 39.2083 38.9897 39.0827 38.9722C38.9814 38.9583 38.881 38.9382 38.7822 38.9119C38.706 38.8914 38.6313 38.8657 38.5587 38.835C38.5048 38.8122 38.4521 38.7868 38.4009 38.7588L38.6022 38.2009C38.7133 38.259 38.8304 38.305 38.9516 38.3381C39.1183 38.3819 39.2905 38.4018 39.4629 38.3973Z" fill="#18365A"/>
</g>
<defs>
<clipPath id="clip0">
<rect width="80" height="80" fill="white"/>
</clipPath>
</defs>
</svg>
